<?xml version="1.0" encoding="UTF-8" standalone="no"?>
<svg
   xmlns:dc="http://purl.org/dc/elements/1.1/"
   xmlns:cc="http://creativecommons.org/ns#"
   xmlns:rdf="http://www.w3.org/1999/02/22-rdf-syntax-ns#"
   xmlns:svg="http://www.w3.org/2000/svg"
   xmlns="http://www.w3.org/2000/svg"
   height="558.92316"
   width="588.13025"
   version="1.1"
   id="svg1542"
   viewBox="0 0 588.13025 558.92316">
  <defs
     id="defs4" />
  <metadata
     id="metadata7">
    <rdf:RDF>
      <cc:Work
         rdf:about="">
        <dc:format>image/svg+xml</dc:format>
        <dc:type
           rdf:resource="http://purl.org/dc/dcmitype/StillImage" />
        <dc:title></dc:title>
      </cc:Work>
    </rdf:RDF>
  </metadata>
  <g
     id="layer1"
     transform="translate(-205.93488,-220.53844)">
    <path
       style="fill:#000000;stroke-width:1.33333"
       d="m 468.60158,778.82072 c -58.97016,-3.23867 -104.7106,-9.15329 -142.27681,-18.39749 -35.38152,-8.70659 -53.47655,-16.58389 -65.93187,-28.702 -9.35324,-9.1 -10.44081,-12.73013 -10.45058,-34.88205 l -0.008,-16.87759 7.33068,2.87758 7.3307,2.87762 0.003,16.17815 0.003,16.17819 5.54022,5.00527 c 38.65669,34.92401 219.22924,53.23876 367.12648,37.23621 66.73905,-7.22121 119.12525,-21.57551 136.70612,-37.45875 l 5.29384,-4.78273 v -45.84484 -45.84487 h 7.33334 7.33333 l -0.008,43.66669 c -0.004,26.91013 -0.55507,45.63893 -1.43455,48.80625 -2.91501,10.49813 -16.36767,21.49263 -36.13028,29.52836 -37.4392,15.22325 -97.40723,25.57425 -173.57565,29.96061 -21.22432,1.22227 -94.99429,1.52939 -114.18544,0.47539 z M 307.82182,712.48824 c -3.95568,-1.72233 -9.88693,-7.89215 -9.88693,-10.28463 0,-2.03777 7.97663,-1.23031 11.65494,1.17982 3.33722,2.18665 12.81491,2.33333 150.73521,2.33333 h 147.1741 l 3.21788,-3.74101 3.2179,-3.74102 V 562.48888 c 0,-135.31147 -0.009,-135.75708 -2.76345,-139.25896 l -2.76344,-3.51315 H 459.26823 310.12844 l -2.76344,3.51315 c -1.51989,1.9322 -2.76344,5.23222 -2.76344,7.3333 0,3.35577 -0.48628,3.8202 -4,3.8202 -3.71022,0 -4,-0.35074 -4,-4.84264 0,-6.74177 4.65348,-13.643 11.20605,-16.61884 5.21712,-2.36939 11.97103,-2.47998 151.46062,-2.47998 139.4896,0 146.24352,0.11036 151.46064,2.47998 3.17031,1.43977 6.66549,4.42945 8.33332,7.12807 l 2.87273,4.64818 v 137.68524 137.68524 l -2.87273,4.64818 c -1.66783,2.69862 -5.16301,5.6883 -8.33332,7.12807 -5.21861,2.37007 -11.96051,2.47892 -152.12729,2.45704 -119.78807,-0.0189 -147.42046,-0.35112 -150.77976,-1.81372 z m 199.88963,-21.77148 c 0.33029,-0.55 -1.06045,-6.10001 -3.09058,-12.33332 l -3.69114,-11.33333 -6.32984,-0.74634 c -8.44779,-0.99609 -10.2104,-3.53299 -9.13886,-13.15362 1.11867,-10.04361 3.14986,-12.10005 11.95146,-12.10005 h 7.06429 l 2.68003,-6.05866 c 1.47401,-3.33225 3.94748,-7.83862 5.4966,-10.01412 l 2.81653,-3.95546 -4.10085,-5.17777 c -2.25547,-2.84776 -4.10085,-6.39469 -4.10085,-7.88213 0,-3.76713 11.69253,-13.55894 16.20401,-13.5699 2.48706,-0.008 4.71994,1.46551 7.52032,4.95628 l 3.98299,4.9649 8.47967,-2.97838 c 4.66382,-1.63812 9.82968,-2.97233 11.47968,-2.96492 2.4127,0.0113 3,-0.73062 3,-3.78754 0,-5.92963 2.62281,-12.00537 5.58897,-12.94677 1.48468,-0.47124 5.95027,-0.4506 9.92355,0.0457 9.06313,1.13234 11.71905,4.38365 10.57567,12.94632 l -0.76856,5.75565 11.30428,5.33333 11.30429,5.33333 0.0359,9 0.0359,9 -5.465,-5.46501 c -12.2036,-12.2036 -33.04597,-17.45329 -49.97419,-12.58734 -19.62687,5.6417 -32.58795,19.98463 -36.63136,40.53683 -2.10492,10.69909 -0.0788,23.26791 5.35181,33.19847 l 3.81907,6.98373 h -7.96219 c -4.37921,0 -7.69194,-0.45003 -7.36161,-1.00002 z m 20.49239,-1.36947 c -1.17939,-1.30322 -3.82191,-5.95325 -5.87225,-10.33335 -3.11281,-6.64985 -3.72591,-9.72377 -3.71583,-18.6305 0.0155,-13.68389 4.56984,-24.39677 14.20221,-33.40671 8.55265,-8.00001 16.79659,-11.54226 28.64829,-12.30954 16.1913,-1.04826 31.2534,5.87323 40.4708,18.5975 l 3.99786,5.51887 v 20.53281 c 0,32.786 0.52752,32.40042 -44.3282,32.40042 -28.25843,0 -31.46431,-0.22753 -33.40288,-2.3695 z m 43.0911,-16.97764 c 4.93601,-2.55251 6.63998,-5.75796 6.63998,-12.49085 0,-7.55958 -4.29141,-12.22363 -12.04401,-13.0899 -7.23835,-0.80882 -12.28456,2.50998 -14.63215,9.62332 -1.29073,3.91086 -1.14651,5.44894 0.90346,9.6353 3.85763,7.87786 11.34187,10.35092 19.13272,6.32213 z m -263.97981,15.43476 c -0.75912,-1.41842 -1.38024,-7.294 -1.38024,-13.05676 v -10.47779 l -6.33333,-1.66761 c -3.48333,-0.91721 -11.00842,-3.84801 -16.72242,-6.51299 l -10.38909,-4.84532 -7.64958,7.56975 c -5.03401,4.9815 -8.74501,7.56975 -10.85334,7.56975 -4.46871,0 -24.05224,-19.58354 -24.05224,-24.05223 0,-2.10833 2.58826,-5.81934 7.56975,-10.85337 l 7.56976,-7.64957 -4.84535,-10.38909 c -2.66494,-5.714 -5.59578,-13.23908 -6.51296,-16.72241 l -1.66761,-6.33335 h -11.4568 c -7.13306,0 -12.06063,-0.60382 -13.05679,-1.59999 -1.06125,-1.06125 -1.60001,-6.82813 -1.60001,-17.12666 0,-19.53408 0.31786,-19.94 15.61338,-19.94 h 10.73672 l 1.57815,-6.33335 c 0.86798,-3.48333 3.68481,-10.73125 6.25963,-16.10654 l 4.68149,-9.77317 -7.43468,-7.79449 c -4.78815,-5.01989 -7.43468,-8.93211 -7.43468,-10.99029 0,-3.7567 20.92001,-25.00218 24.61916,-25.00218 1.25307,0 5.97638,3.54043 10.49624,7.86761 l 8.21793,7.86762 8.66667,-4.37208 c 4.76667,-2.40462 12.11667,-5.45462 16.33334,-6.77776 l 7.66666,-2.4057 v -10.99461 c 0,-15.00208 0.23164,-15.18508 19.22192,-15.18508 18.98553,0 19.44475,0.37039 19.44475,15.67706 v 10.80038 l 7.66667,2.20754 c 4.21666,1.21414 11.54931,4.25791 16.29474,6.76396 l 8.6281,4.55641 8.25093,-8.17757 c 6.76936,-6.7092 8.82214,-8.03422 11.43201,-7.37919 3.99108,1.00169 23.72755,21.11482 23.72755,24.18039 0,1.24766 -3.58929,6.00639 -7.9762,10.5749 l -7.9762,8.30638 4.50908,8.5782 c 2.48,4.71802 5.57886,12.02824 6.88636,16.24487 l 2.37728,7.66669 h 10.88319 c 14.89431,0 15.29651,0.51734 15.29651,19.67641 0,18.72495 -0.21188,18.99024 -15.16615,18.99024 h -10.97564 l -2.97308,9.23115 c -1.63521,5.07712 -4.69024,12.42713 -6.78897,16.33335 l -3.81588,7.10218 7.85985,8.21794 c 4.32292,4.51986 7.85985,9.33309 7.85985,10.6961 0,3.37444 -21.32131,24.4193 -24.74007,24.4193 -1.48704,0 -5.91466,-3.27095 -9.9266,-7.33334 -3.98321,-4.03332 -7.86273,-7.32211 -8.62111,-7.30839 -0.75839,0.0151 -5.35159,2.03845 -10.20714,4.49945 -4.85552,2.46096 -11.90553,5.26314 -15.66667,6.22711 l -6.83841,1.75264 v 10.98603 c 0,15.08137 -0.12567,15.1765 -20.04832,15.1765 -14.3136,0 -15.99227,-0.25133 -17.23811,-2.57903 z m 40.4386,-48.12866 c 28.76307,-8.88397 48.84783,-36.67113 48.84783,-67.5806 0,-21.16883 -6.57446,-37.61911 -20.66686,-51.71153 -31.76769,-31.76769 -85.97711,-26.44169 -110.75055,10.88107 -8.22141,12.38608 -11.64546,24.1423 -11.5877,39.78542 0.0592,16.02856 3.13624,27.05428 10.81793,38.76284 18.47095,28.1537 51.06245,39.83214 83.33935,29.8628 z m 298.18119,-18.41208 v -6.45309 l 16.33333,-2.29825 c 53.04566,-7.46397 98.19247,-21.37263 112.17286,-34.55785 l 4.82715,-4.55259 v -45.50922 -45.50925 h 7.33333 7.33334 v 43.512 c 0,28.74652 -0.51645,45.23569 -1.5219,48.59164 -6.46812,21.58867 -48.888,39.12397 -122.22102,50.52307 -25.13222,3.90663 -24.25709,4.04179 -24.25709,-3.74646 z M 528.80536,594.71676 c -1.51706,-1.28334 -3.56947,-5.63331 -4.56091,-9.66667 l -1.80265,-7.33334 -9.25344,-0.83981 c -5.0894,-0.4619 -11.65346,-1.50981 -14.58679,-2.32876 -5.95588,-1.66277 -5.45773,-2.02163 -11.63384,8.38118 -4.48465,7.5538 -7.5758,7.8788 -18.20385,1.91384 -13.95597,-7.83277 -14.81749,-10.10449 -8.02093,-21.15031 l 4.14139,-6.73063 -5.95245,-6.36362 c -3.27384,-3.5 -7.35215,-8.79568 -9.0629,-11.76817 l -3.11045,-5.40453 -6.74516,1.79622 c -9.35317,2.49082 -13.72762,2.30823 -15.30483,-0.63882 -0.72609,-1.35674 -2.54085,-6.87175 -4.0328,-12.25561 -3.47984,-12.55744 -2.25257,-14.95676 9.29224,-18.16652 l 7.96691,-2.215 0.0231,-5.44803 c 0.0132,-2.99645 0.91278,-9.64808 2.0001,-14.7814 1.29567,-6.11694 1.50664,-9.49005 0.61223,-9.78818 -4.69828,-1.56612 -14.02603,-9.28169 -14.39907,-11.91042 -0.48509,-3.41847 7.38351,-18.33752 11.761,-22.29907 2.85561,-2.58429 2.90412,-2.5765 11.41946,1.83848 l 8.55165,4.43384 6.53412,-5.47068 6.53411,-5.47068 h 50.90481 c 50.69895,0 50.90131,0.0113 50.03797,2.7312 -0.64434,2.03014 0.4916,4.20496 4.42519,8.47238 2.91061,3.15765 6.71025,8.22399 8.44365,11.25853 1.7334,3.03455 3.75164,5.51486 4.48497,5.5118 0.73334,-0.003 4.63334,-0.89132 8.66667,-1.97389 4.03334,-1.08257 7.50125,-1.97549 7.70651,-1.98418 0.20523,-0.008 0.20523,7.59693 0,16.90141 l -0.37316,16.9172 -4.16585,1.0775 c -4.15532,1.07479 -4.16779,1.10533 -4.9292,12.08278 -0.41984,6.05291 -1.16044,12.63065 -1.64579,14.61721 -0.78898,3.22941 -0.23164,4.00501 5.26254,7.32362 l 6.14497,3.71173 -0.1048,8.00969 c -0.0818,6.24842 -0.90524,9.32908 -3.74484,14.00972 -4.67661,7.70858 -8.34865,8.27463 -17.96977,2.76998 l -7.12493,-4.07649 -2.52784,2.81141 c -1.8892,2.10115 -14.03751,11.24704 -20.25101,15.24612 -0.21443,0.13795 0.62064,4.27374 1.8557,9.19053 2.16396,8.61475 2.1539,9.0283 -0.27681,11.38004 -1.98093,1.91656 -19.82862,8.01173 -23.45971,8.01173 -0.42199,0 -2.00848,-1.04999 -3.52555,-2.33333 z m 8.05329,-57.42225 c 8.72771,-4.28935 16.71875,-12.48869 20.82771,-21.37058 2.82413,-6.10466 3.4973,-9.57623 3.53513,-18.23123 0.0412,-9.43219 -0.46659,-11.73396 -4.31396,-19.5526 -7.63613,-15.51813 -21.40301,-24.26199 -38.30595,-24.32957 -12.44144,-0.0499 -21.5761,3.25228 -30.03407,10.85673 -9.63625,8.66381 -13.61534,17.10463 -14.3228,30.38283 -0.45693,8.57627 -0.0181,12.12453 2.23828,18.10579 4.59732,12.18565 14.04987,21.45664 26.6283,26.11683 7.69938,2.85253 26.11451,1.77309 33.74736,-1.9782 z m 109.07627,-56.12723 c 0,-6.54444 0.004,-6.55004 5,-7.30855 72.70889,-11.03826 109.22691,-21.90735 124.32232,-37.00275 l 4.01103,-4.01102 V 387.61418 342.3834 h 7.39842 7.39842 l -0.39842,45.66667 -0.39842,45.66668 -3.64851,6.20647 c -8.78313,14.94085 -35.90684,27.49822 -81.46723,37.71659 -14.77336,3.3134 -54.91674,10.06616 -59.88427,10.0735 -1.90602,0.003 -2.33334,-1.196 -2.33334,-6.54603 z M 264.23525,450.85743 c -3.50147,-2.62809 -8.00147,-7.55988 -10,-10.95953 l -3.63369,-6.18115 -0.39843,-45.66668 -0.39843,-45.66667 h 7.39843 7.39843 v 45.06274 45.06274 l 5,4.77963 c 2.75,2.62878 6.37366,5.48432 8.05259,6.34564 l 3.05259,1.56605 -4.16463,5.25827 c -2.29055,2.89205 -4.56421,5.24008 -5.05259,5.21778 -0.48838,-0.0227 -3.7528,-2.19072 -7.25427,-4.81882 z m 225.69966,-98.62129 c -116.44788,-4.1164 -204.05366,-22.30972 -229.88718,-47.74126 -32.29652,-31.79395 19.75198,-62.72254 129.20323,-76.77593 46.15082,-5.9257 69.3377,-7.18051 132.68395,-7.18051 63.34624,0 86.53314,1.25481 132.68395,7.18051 64.95669,8.34035 114.16583,23.84679 130.25186,41.04405 40.76418,43.58018 -69.23539,80.62447 -247.60248,83.38447 -19.06666,0.29518 -40.36667,0.33487 -47.33334,0.0888 z m 125.33334,-17.08241 c 83.61732,-8.00772 140.64003,-22.38724 159.56798,-40.23859 17.47051,-16.47681 -19.37474,-36.24669 -91.49733,-49.09431 -46.86835,-8.34894 -95.69035,-11.96951 -161.40399,-11.96951 -82.53004,0 -147.15483,6.48603 -198.37633,19.9099 -48.90767,12.81752 -68.59112,27.88785 -54.17833,41.48085 19.22887,18.13519 88.51755,34.74573 168.55466,40.40758 11.36665,0.80409 23.36667,1.67935 26.66667,1.94502 16.89317,1.36002 130.13365,-0.47456 150.66667,-2.44094 z"
       id="path1495" />
  </g>
</svg>
