<?xml version="1.0" encoding="UTF-8" standalone="no"?>
<svg
   xmlns:dc="http://purl.org/dc/elements/1.1/"
   xmlns:cc="http://creativecommons.org/ns#"
   xmlns:rdf="http://www.w3.org/1999/02/22-rdf-syntax-ns#"
   xmlns:svg="http://www.w3.org/2000/svg"
   xmlns="http://www.w3.org/2000/svg"
   height="473.91919"
   width="461.62167"
   version="1.1"
   id="svg894"
   viewBox="0 0 461.62167 473.91919">
  <defs
     id="defs4" />
  <metadata
     id="metadata7">
    <rdf:RDF>
      <cc:Work
         rdf:about="">
        <dc:format>image/svg+xml</dc:format>
        <dc:type
           rdf:resource="http://purl.org/dc/dcmitype/StillImage" />
        <dc:title></dc:title>
      </cc:Work>
    </rdf:RDF>
  </metadata>
  <g
     id="layer1"
     transform="translate(-269.18917,-263.04041)">
    <path
       style="fill:#000000;stroke-width:1.33333"
       d="M 480.2994,736.27992 C 425.80145,731.89559 376.03739,708.78404 336.92849,669.69519 316.65343,649.43053 305.2339,633.63528 293.0472,608.99949 274.38856,571.28048 268.10352,542.29657 269.33875,499.66618 c 1.6149,-55.73352 15.64005,-100.00467 44.77457,-141.33335 9.75183,-13.83341 37.79694,-41.83306 51.96192,-51.87766 66.38464,-47.07436 150.23429,-56.48376 224.61959,-25.20625 71.26349,29.96486 123.36412,95.41477 137.16503,172.30952 3.94995,22.00793 3.93267,56.72583 -0.0404,81.44107 -9.04354,56.25544 -29.1857,97.04399 -66.17242,134.00145 -24.06293,24.04388 -50.2328,41.13249 -81.43896,53.17864 -29.88272,11.5353 -66.8829,16.75721 -99.90856,14.10032 z m 58.46329,-116.30011 c 2.06657,-1.51117 2.30687,-4.78046 2.3122,-31.46094 0.004,-20.71601 -0.46685,-30.3442 -1.54802,-31.64697 -1.2181,-1.4677 -6.2575,-1.87241 -23.31511,-1.87241 -20.97585,0 -21.83603,0.10696 -23.83673,2.96337 -1.71692,2.45122 -2.0756,7.75095 -2.0756,30.66664 0,35.58697 -1.98743,33.03666 25.74516,33.03666 14.35219,0 21.09645,-0.50064 22.7181,-1.68635 z m 57.09842,-0.52029 c 2.26477,-2.0496 2.43832,-5.22304 2.43832,-44.59106 0,-42.28735 -0.008,-42.38917 -2.96334,-44.46001 -4.29619,-3.00915 -37.77717,-3.00915 -42.07332,0 -2.95601,2.07042 -2.96334,2.18037 -2.96334,44.22833 0,37.35247 0.25134,42.43041 2.20664,44.59106 1.94472,2.14888 4.50418,2.43832 21.56168,2.43832 16.13896,0 19.7602,-0.36661 21.79336,-2.20664 z m -219.56168,-1.57618 c 7.2717,-4.43486 23.376,-27.80572 26.08006,-37.84792 1.14769,-4.26225 0.76366,-6.77462 -2.55178,-16.69331 -4.96336,-14.84855 -6.83456,-21.67593 -5.94078,-21.67593 2.05569,0 16.78904,8.82316 23.40733,14.01763 11.1464,8.74843 12.74967,12.84529 18.51629,47.31568 2.14582,12.82677 5.99905,17.33333 14.82055,17.33333 7.80423,0 12.19623,-4.35035 11.90464,-11.79167 -0.24907,-6.3563 -6.03783,-35.94932 -9.73637,-49.7737 -3.52845,-13.18874 -7.35001,-17.61626 -28.69239,-33.24219 -9.22182,-6.75179 -17.82747,-14.0199 -19.1237,-16.15136 -2.27852,-3.74672 -2.2481,-4.39276 0.91692,-19.45822 1.80053,-8.57057 4.87691,-20.38284 6.83644,-26.2495 5.28292,-15.81664 6.45801,-15.59626 38.56415,7.23243 22.25189,15.82197 29.83688,20.10089 35.63146,20.10089 5.4909,0 10.63079,-5.17002 9.74528,-9.80236 -0.52713,-2.75746 3.73176,-7.99736 27.08882,-33.32844 l 27.7143,-30.05658 7.28027,7.86357 c 4.00415,4.32496 8.96009,11.3421 11.01324,15.59369 4.07018,8.4285 5.36229,9.83687 8.07103,8.79742 4.79131,-1.83859 -0.20107,-17.7374 -10.06699,-32.05875 -4.96532,-7.20771 -6.33162,-10.25438 -5.81367,-12.96378 0.50509,-2.6423 -0.27629,-4.53675 -3.0768,-7.45991 -3.92107,-4.0927 -7.05982,-4.91335 -9.49153,-2.48164 -1.02656,1.02656 -3.48121,-0.12095 -8.60001,-4.01979 -3.9399,-3.00099 -12.87137,-8.40084 -19.8477,-11.99959 -14.97967,-7.72736 -17.31576,-7.45723 -17.31576,2.00202 0,5.21699 0.49618,6.23951 4.01141,8.26707 2.20629,1.27253 9.70628,5.57942 16.66669,9.57082 6.96038,3.99141 12.65526,7.59663 12.65526,8.01162 0,0.41499 -12.75001,13.4869 -28.33334,29.04865 l -28.33335,28.29411 -19.3333,-12.37447 c -10.63336,-6.80595 -23.38828,-15.17095 -28.34434,-18.58889 -15.74544,-10.85881 -36.17957,-14.83801 -45.76743,-8.91239 -9.63232,5.9531 -20.56222,27.62083 -27.53597,54.58798 -3.22307,12.46333 -4.00381,18.34897 -4.16002,31.35923 l -0.19237,16.01632 10.34513,21.31703 c 5.68985,11.72439 10.33984,22.99687 10.33334,25.04995 -0.0151,4.41846 -1.77491,8.03898 -12.18682,25.05649 -4.30375,7.03415 -7.82498,13.78416 -7.82498,15 0,6.92277 12.58295,10.02456 20.66668,5.09446 z m 275.90476,0.35415 c 1.83802,-1.83806 2.09522,-8.94841 2.09522,-57.9244 v -55.82914 l -2.96334,-2.07564 c -2.32823,-1.63076 -6.83683,-2.07561 -21.03666,-2.07561 -14.1998,0 -18.7084,0.44485 -21.03663,2.07561 l -2.96337,2.07564 v 55.34536 c 0,35.60118 0.49243,56.26545 1.38024,57.9244 1.27287,2.3783 2.9774,2.57899 21.90478,2.57899 16.88089,0 20.89648,-0.3719 22.61976,-2.09521 z M 436.68524,416.73753 c 17.27981,-13.88856 15.54686,-40.70586 -3.0904,-47.8235 -5.62356,-2.14764 -6.30138,-2.14734 -11.93764,0.004 -10.58215,4.0413 -19.3578,16.90216 -19.3578,28.36921 0,4.97053 2.32789,11.97078 5.49487,16.52383 6.09781,8.76665 19.88629,10.16273 28.89097,2.92524 z"
       id="path847" />
  </g>
</svg>
