<?xml version="1.0" encoding="UTF-8" standalone="no"?>
<svg
   xmlns:dc="http://purl.org/dc/elements/1.1/"
   xmlns:cc="http://creativecommons.org/ns#"
   xmlns:rdf="http://www.w3.org/1999/02/22-rdf-syntax-ns#"
   xmlns:svg="http://www.w3.org/2000/svg"
   xmlns="http://www.w3.org/2000/svg"
   height="998.71808"
   width="998.72272"
   version="1.1"
   id="svg894"
   viewBox="0 0 998.72272 998.71808">
  <defs
     id="defs4" />
  <metadata
     id="metadata7">
    <rdf:RDF>
      <cc:Work
         rdf:about="">
        <dc:format>image/svg+xml</dc:format>
        <dc:type
           rdf:resource="http://purl.org/dc/dcmitype/StillImage" />
        <dc:title></dc:title>
      </cc:Work>
    </rdf:RDF>
  </metadata>
  <g
     id="layer1"
     transform="translate(-0.63862084,-0.6409579)">
    <path
       style="fill:#000000;stroke-width:0.999999"
       d="m 477.03001,998.87907 c -52.02032,-2.57639 -100.08328,-12.26053 -149.7838,-30.17976 -7.36368,-2.65493 -8.14121,-3.16921 -7,-4.62988 1.13836,-1.45705 1.09031,-1.49167 -0.42418,-0.30577 -1.44886,1.13462 -2.58671,1.00887 -7.5,-0.829 -12.02179,-4.4968 -34.25457,-15.26014 -33.62513,-16.27861 0.37089,-0.60011 0.15757,-0.7395 -0.50501,-0.32995 -1.55293,0.95977 -17.3282,-7.32182 -16.49992,-8.662 0.37009,-0.59883 0.16758,-0.75061 -0.47316,-0.35452 -1.59388,0.9851 -9.42286,-3.19559 -8.56961,-4.57618 0.42829,-0.69297 0.23482,-0.83493 -0.51027,-0.37455 -1.56611,0.9679 -15.30643,-7.30409 -14.44575,-8.69669 0.35958,-0.58182 0.16815,-0.74978 -0.43189,-0.37894 -1.36221,0.84189 -8.41997,-3.24272 -7.67785,-4.44351 0.30274,-0.48987 -0.22175,-0.59433 -1.16554,-0.23206 -1.033,0.39639 -1.46919,0.25927 -1.09592,-0.3447 0.34103,-0.55181 0.0722,-1.00327 -0.5973,-1.00327 -2.26375,0 -15.66694,-9.56689 -15.01191,-10.71515 0.35085,-0.61501 0.28157,-0.7965 -0.1539,-0.40335 -1.02242,0.92299 -4.74943,-1.0489 -4.06762,-2.1521 0.28449,-0.46031 -0.26539,-0.77522 -1.22198,-0.69982 -0.96194,0.0756 -1.61644,-0.45479 -1.46447,-1.18723 0.15111,-0.72839 -0.11856,-1.08124 -0.59935,-0.7841 -1.16019,0.71702 -9.33112,-5.33064 -8.66293,-6.41182 0.28608,-0.46287 -0.007,-1.16719 -0.65069,-1.56517 -0.73123,-0.45192 -0.90293,-0.29027 -0.45729,0.4309 1.13912,1.84316 -0.93228,1.3338 -2.7517,-0.67665 -0.91146,-1.00713 -1.33242,-2.15592 -0.93547,-2.55284 0.39693,-0.39693 0.0604,-0.48 -0.74783,-0.18444 -0.8604,0.31445 -3.36035,-1.21792 -6.03134,-3.69714 -2.509,-2.32883 -3.634,-3.55929 -2.49999,-2.73426 2.04461,1.48747 2.0461,1.48139 0.17816,-0.72642 -1.036,-1.22453 -2.31007,-1.9629 -2.83126,-1.64077 -1.27548,0.78829 -6.87854,-4.67259 -6.09501,-5.94036 0.3417,-0.55287 0.11992,-0.69309 -0.49507,-0.31295 -0.61271,0.37867 -2.93888,-0.96019 -5.1693,-2.9752 -3.04689,-2.75271 -3.79087,-3.9823 -2.99194,-4.94499 0.75183,-0.90587 0.7489,-1.47556 -0.01,-1.9446 -0.59033,-0.36472 -1.00889,-0.29254 -0.93014,0.16101 0.40882,2.3534 -0.44865,2.21125 -4.0984,-0.67945 -2.20261,-1.74448 -3.70808,-3.65182 -3.34549,-4.23851 0.36261,-0.5867 0.19986,-0.78282 -0.36159,-0.43578 -1.3281,0.8208 -4.52353,-2.70202 -3.54034,-3.90308 0.4137,-0.50536 0.33339,-0.57506 -0.17847,-0.15496 -1.22837,1.00841 -6.67972,-4.25137 -5.87345,-5.66703 0.34363,-0.60332 0.25652,-0.76335 -0.19355,-0.35565 -1.11957,1.01424 -3.6378,-1.21311 -2.83681,-2.50915 0.35573,-0.57555 0.16467,-0.74525 -0.42717,-0.37947 -1.23638,0.76411 -10.40038,-9.2815 -9.61951,-10.54499 0.28566,-0.46216 1.00779,-0.53847 1.60477,-0.16932 0.66346,0.41004 0.79636,0.20333 0.34186,-0.53224 -0.54381,-0.87991 -1.09844,-0.90852 -2.0647,-0.10658 -1.02004,0.84658 -2.19629,0.0404 -5.16097,-3.53715 -2.1119,-2.54846 -3.71617,-5.07847 -3.56504,-5.6222 0.15112,-0.54376 -0.16365,-0.71769 -0.69951,-0.38649 -1.05428,0.65155 -5.73621,-5.12818 -5.32527,-6.57392 0.1375,-0.48378 -0.3125,-0.76709 -1,-0.6296 -0.6875,0.13758 -1.1375,-0.31256 -1,-0.99998 0.1375,-0.6875 -0.0875,-1.13749 -0.5,-0.99999 -0.4125,0.13757 -0.94483,-0.19994 -1.18296,-0.75001 -0.23814,-0.55 -1.50299,-1.84169 -2.81079,-2.8704 -1.33517,-1.05025 -2.13695,-2.49812 -1.82849,-3.30195 0.30213,-0.78735 0.13528,-1.17562 -0.37079,-0.86286 -1.19454,0.73825 -4.16249,-3.48503 -3.36076,-4.78228 0.33704,-0.54534 0.13347,-0.69528 -0.45238,-0.33335 -1.34145,0.82908 -7.397295,-7.26149 -6.549409,-8.74995 0.344433,-0.60465 0.2686,-0.77639 -0.16851,-0.38162 -1.060692,0.95796 -7.807349,-7.95333 -7.004681,-9.25209 0.345091,-0.55835 0.256489,-0.89155 -0.196892,-0.74045 -0.453382,0.15118 -0.82433,-0.0435 -0.82433,-0.43215 0,-0.38884 -0.856249,-1.33308 -1.902775,-2.09832 -1.203693,-0.88014 -1.606178,-1.87124 -1.095492,-2.69752 0.496502,-0.80338 0.413568,-1.06292 -0.215429,-0.67416 -1.364685,0.84344 -10.553828,-13.05656 -9.660408,-14.61286 0.382114,-0.66557 0.313092,-0.86317 -0.153381,-0.43907 -1.126691,1.02444 -6.728556,-8.04782 -5.848537,-9.47172 0.378354,-0.61221 0.234369,-0.82991 -0.321622,-0.48627 -1.721806,1.06412 -18.907322,-30.52528 -17.6837,-32.50515 0.451069,-0.72983 0.231281,-0.83327 -0.634091,-0.29858 -0.969713,0.59928 -1.148084,0.35905 -0.665964,-0.89745 0.362154,-0.94379 0.287811,-1.48687 -0.165279,-1.20688 -0.908477,0.56149 -2.291142,-2.07678 -8.859696,-16.90522 -9.82023,-22.16909 -24.85801,-65.23382 -23.967757,-68.63815 0.268195,-1.02554 0.117543,-1.63589 -0.334753,-1.35636 -0.868192,0.53658 -5.836384,-19.16599 -9.079144,-36.00548 -12.6184305,-65.52798 -12.4013911,-130.59825 0.654711,-196.2336 1.338418,-6.72847 2.433487,-12.49255 2.433487,-12.80901 0,-0.31635 0.408034,-0.32315 0.906743,-0.0151 0.498709,0.30841 0.685584,-0.28535 0.415275,-1.31898 -0.997674,-3.81509 13.192385,-51.54154 14.993424,-50.42844 0.548153,0.3388 0.682481,0.1107 0.299641,-0.50876 -0.864332,-1.39852 3.366724,-13.41518 11.156682,-31.68619 8.068577,-18.9245 8.374163,-19.52786 9.528983,-18.81413 0.554555,0.34272 0.708034,0.13734 0.341064,-0.45643 -0.914147,-1.47912 1.406582,-6.31758 2.658932,-5.54357 0.561499,0.34703 0.701501,0.12676 0.315968,-0.49708 -0.782581,-1.26624 0.837938,-4.70437 10.100667,-21.42992 3.761239,-6.79162 6.942709,-11.46897 7.546995,-11.0955 0.588778,0.36389 0.748593,0.16656 0.366214,-0.45213 -1.54392,-2.4981 31.365664,-50.94965 33.648194,-49.53897 0.56664,0.35021 0.74315,0.1722 0.39225,-0.39558 -0.70434,-1.13965 5.85261,-10.2767 7.3748,-10.2767 0.5248,0 0.84169,-0.5625 0.70419,-1.25 -0.1375,-0.6875 0.3125,-1.1375 1,-1 0.6875,0.1375 1.1375,-0.31249 1,-1 -0.1375,-0.6875 0.34595,-1.12635 1.07433,-0.97522 0.72838,0.15111 1.06287,-0.14827 0.74331,-0.66533 -0.82101,-1.32843 4.38928,-7.25411 5.67802,-6.45762 0.6007,0.37127 0.77252,0.1866 0.39492,-0.42437 -0.88906,-1.43853 20.17396,-24.46011 21.58264,-23.5895 0.59719,0.36907 0.80727,0.22039 0.46685,-0.33044 -0.80219,-1.29796 4.68313,-6.57669 5.78959,-5.57153 0.46254,0.42019 0.55446,0.26165 0.20425,-0.35237 -0.78706,-1.37987 2.6629,-4.67421 3.80756,-3.63583 0.45605,0.4137 0.52989,0.22919 0.16411,-0.41002 -0.38375,-0.67058 1.02897,-2.50392 3.33967,-4.33403 3.64975,-2.89066 4.50722,-3.03281 4.0984,-0.67944 -0.0787,0.45338 0.33982,0.52582 0.93014,0.16097 0.75889,-0.46902 0.76182,-1.03872 0.01,-1.94461 -0.79893,-0.96265 -0.0549,-2.19227 2.99194,-4.94496 2.23041,-2.01503 4.55659,-3.35388 5.1693,-2.97521 0.63774,0.39415 0.83558,0.238 0.46274,-0.36525 -0.85279,-1.37986 6.1332,-7.50249 7.55663,-6.62276 0.60205,0.37209 0.81476,0.22367 0.47269,-0.32981 -0.77416,-1.25261 11.6438,-11.46388 13.47633,-11.08156 0.73513,0.15338 1.2385,-0.24045 1.1186,-0.87514 -0.30837,-1.6323 10.51786,-9.58772 11.8919,-8.738513 0.65576,0.405283 0.86125,0.258407 0.4866,-0.347792 -0.69394,-1.122807 16.73905,-13.593026 19.00263,-13.593026 0.73528,0 1.10236,-0.234519 0.81573,-0.52114 -0.88861,-0.888608 8.54694,-6.247612 9.72175,-5.521546 0.63363,0.391612 0.82869,0.232441 0.45539,-0.371565 -0.81317,-1.315733 6.09913,-5.52178 7.57528,-4.60947 0.6256,0.386645 0.78944,0.199597 0.39054,-0.445841 -0.84992,-1.375189 4.98206,-4.559951 6.56206,-3.583453 0.73814,0.456196 0.84359,0.239811 0.3066,-0.629072 -0.59931,-0.969714 -0.35894,-1.148085 0.89743,-0.665964 0.97719,0.374967 1.46428,0.251225 1.13135,-0.287471 -0.7704,-1.246538 5.21295,-4.314682 6.66464,-3.417494 0.73814,0.4562 0.84359,0.239811 0.30659,-0.629073 -0.59931,-0.969713 -0.35894,-1.14808 0.89743,-0.665964 0.96929,0.371944 1.46363,0.250167 1.13604,-0.279874 -0.7709,-1.247346 3.20445,-3.324623 4.65125,-2.430455 0.62774,0.387968 0.86081,0.258973 0.52216,-0.288983 -0.77096,-1.24744 6.05857,-4.588188 7.52586,-3.681362 0.69795,0.431365 0.79342,0.197972 0.26725,-0.653367 -0.59931,-0.969709 -0.35895,-1.14808 0.89743,-0.66596 0.94379,0.362154 1.47319,0.265625 1.17643,-0.214526 -0.6587,-1.065797 23.1845,-12.086744 40.93568,-18.921536 26.30147,-10.126934 66.63299,-21.823363 71.43033,-20.715307 1.67946,0.387908 2.10619,0.283918 1.2318,-0.30017 -2.00143,-1.336959 27.0499,-6.5713139 53.33787,-9.6102015 30.9587,-3.57882335 74.89378,-3.80232949 104.50003,-0.5316208 27.83766,3.0753336 59.98723,8.7075633 57.8496,10.1345763 -0.88418,0.590253 -0.43854,0.690021 1.29226,0.289323 5.21851,-1.20819 48.01958,11.506643 75.85814,22.535033 18.80644,7.450276 37.09353,16.055467 36.42357,17.139504 -0.29026,0.469394 0.24492,0.557125 1.18855,0.194948 1.25635,-0.482121 1.49673,-0.303761 0.89741,0.66596 -0.5342,0.864389 -0.43132,1.085129 0.29632,0.635482 1.45617,-0.899958 13.45077,5.155903 12.68054,6.402176 -0.33902,0.548833 0.13946,0.674861 1.12584,0.296391 1.25636,-0.482117 1.49674,-0.303761 0.89742,0.665964 -0.537,0.868898 -0.43155,1.085272 0.30652,0.629072 0.61882,-0.382458 2.52018,0.02608 4.22528,0.907763 2.67882,1.385288 2.92721,1.832489 1.82759,3.290869 -1.07622,1.427327 -1.05626,1.494863 0.12926,0.437726 1.76096,-1.5703 3.3569,-1.633633 2.40628,-0.09551 -0.45173,0.730949 -0.27326,0.882399 0.48657,0.412811 1.56612,-0.967914 15.30645,7.304085 14.44577,8.69669 -0.37228,0.602245 -0.16441,0.747583 0.48998,0.343029 1.51593,-0.936914 17.36421,9.274867 16.51831,10.643539 -0.38483,0.622697 -0.17726,0.76376 0.50404,0.342652 1.48773,-0.91946 13.32004,7.324003 12.47501,8.69124 -0.35981,0.58216 -0.14287,0.721636 0.50192,0.322998 1.37405,-0.849207 12.20024,7.10622 11.89191,8.73852 -0.11981,0.6347 0.39186,1.02571 1.13726,0.86892 1.83379,-0.38575 4.27857,1.75948 3.4792,3.05291 -0.37379,0.60477 -0.15949,0.74203 0.51137,0.32746 1.45716,-0.90057 11.33677,7.30021 10.47485,8.69485 -0.37493,0.60678 -0.13001,0.70998 0.60605,0.25515 1.4999,-0.92698 7.28806,4.29816 6.3832,5.76226 -0.34166,0.55289 -0.11981,0.69309 0.49505,0.31299 0.6127,-0.37867 2.93888,0.96017 5.16929,2.97521 3.04691,2.75268 3.79087,3.9823 2.99195,4.94496 -0.75983,0.91553 -0.71996,1.49348 0.13985,2.02478 0.73538,0.4545 0.94227,0.3216 0.53223,-0.34185 -0.36888,-0.59698 -0.25965,-1.33942 0.24265,-1.64987 1.30212,-0.80476 11.25588,8.39625 10.46592,9.67445 -0.36056,0.58344 -0.20749,0.78381 0.34054,0.44523 1.29834,-0.80242 7.58506,5.67738 6.58053,6.78265 -0.42217,0.46452 -0.24453,0.54531 0.39459,0.17952 1.3093,-0.74927 15.36812,13.95453 15.04195,15.73204 -0.11225,0.6118 0.31597,1.01405 0.95127,0.8939 1.49722,-0.28308 6.47853,6.22721 5.55137,7.25537 -0.38872,0.43107 -0.1852,0.48539 0.45211,0.12075 1.372,-0.78496 6.62094,5.08063 5.77349,6.45181 -0.31937,0.51706 0.0151,0.81645 0.74332,0.66533 0.72839,-0.15114 1.21183,0.28773 1.07433,0.97522 -0.13757,0.6875 0.16176,1.1375 0.66512,1 1.37329,-0.37516 10.16825,11.30608 9.42183,12.51382 -0.35527,0.57486 -0.1765,0.75505 0.39727,0.40043 1.25325,-0.77455 6.62154,5.95107 5.80486,7.27254 -0.31445,0.50876 -0.045,1.25064 0.59913,1.64862 0.77885,0.48136 0.92262,0.25342 0.42951,-0.6809 -1.30628,-2.47507 3.26812,3.36908 8.48867,10.84486 2.84538,4.07454 4.74977,7.75525 4.3485,8.4045 -0.41783,0.67607 -0.27742,0.88531 0.33864,0.50451 1.13223,-0.69974 7.58959,8.60729 7.58959,10.93889 0,0.7715 0.22867,1.1741 0.50809,0.89467 0.54875,-0.54877 4.14115,4.48426 4.152,5.81708 0.004,0.44496 -0.43824,0.53408 -0.98196,0.19805 -0.57774,-0.35709 -0.72767,0.0688 -0.36095,1.02483 0.44901,1.17006 0.83724,1.29681 1.36354,0.44517 0.52827,-0.8547 0.92882,-0.87835 1.4199,-0.0838 0.37606,0.60872 0.36283,1.62629 -0.0302,2.26127 -0.43234,0.69952 -0.27515,0.88368 0.3984,0.4673 1.37518,-0.84991 4.55996,4.98206 3.58345,6.56207 -0.40963,0.6628 -0.24756,0.84836 0.39446,0.45157 1.1901,-0.73551 12.64483,19.68115 12.64668,22.54113 5.7e-4,0.92212 0.43113,1.4108 0.95671,1.08596 0.54974,-0.33974 0.67597,0.13825 0.29707,1.12535 -0.36207,0.94379 -0.2759,1.47955 0.19163,1.19057 1.70471,-1.05359 15.12026,29.7943 24.16501,55.56544 10.20423,29.0749 16.67286,53.99291 21.37935,82.35611 24.41026,147.10621 -16.45425,295.40206 -112.42874,408 -12.19782,14.3105 -41.52098,43.64901 -55.48871,55.51767 -64.39355,54.71664 -142.39136,92.78782 -224.17025,109.41876 -37.89396,7.70627 -85.58109,11.38581 -123.32976,9.51632 z m 73.00002,-256.90375 c 53.6843,-5.11756 98.32472,-15.25864 124.49999,-28.28296 9.68617,-4.81966 22.03668,-13.43623 26.56414,-18.53292 2.31251,-2.60326 5.49373,-7.43323 7.06942,-10.73321 l 2.86488,-6 7.6e-4,-27.60397 7.9e-4,-27.60397 -2.46168,-2.65622 c -4.35179,-4.69568 -8.31583,-5.3461 -14.37362,-2.35835 -4.73049,2.33311 -5.16469,4.87798 -5.16469,30.27171 0,27.00261 -0.20069,27.88063 -7.87959,34.49878 -2.54121,2.19016 -9.12042,6.20303 -14.62039,8.91749 -28.95742,14.29164 -75.03662,24.18308 -130.50002,28.01337 -18.62819,1.28647 -69.27389,1.29097 -88.00001,0.008 -54.358,-3.72473 -99.59023,-13.23515 -128.94269,-27.11127 -9.17265,-4.33629 -10.80227,-4.81134 -13.39923,-3.90603 -1.62609,0.56685 -4.95322,1.03064 -7.39362,1.03064 -5.02705,0 -19.45055,-3.88989 -18.73235,-5.05195 0.25886,-0.41884 -0.42997,-0.52599 -1.53073,-0.23811 -1.10076,0.288 -2.00138,0.85335 -2.00138,1.2567 0,1.19251 5.49442,8.3006 8.85294,11.45299 2.55526,2.39841 2.89923,3.20167 1.927,4.49998 -0.97456,1.30144 -0.94429,1.36803 0.17148,0.37719 1.64287,-1.45886 5.47974,0.19654 4.42208,1.90787 -0.39639,0.64135 -0.2273,0.82303 0.40323,0.43332 0.59717,-0.36888 2.80419,0.50472 4.9045,1.94174 26.28399,17.98344 80.9982,31.23156 150.31877,36.39719 15.14738,1.12872 88.34286,0.46942 103.00002,-0.9278 z M 284.03001,701.31856 c 0,-0.8276 -1.94173,-1.29562 -2.38691,-0.57532 -0.28879,0.4673 0.13009,0.84964 0.9309,0.84964 0.8008,0 1.45601,-0.12359 1.45601,-0.2744 z M 588.53,687.03421 c 13.25571,-5.28465 21.77356,-13.25506 27.90116,-26.10799 l 3.09887,-6.49999 0.27061,-91.92375 c 0.29783,-101.23687 0.52974,-96.9699 -5.88215,-108.2417 -5.68539,-9.99462 -18.72344,-19.67429 -30.00299,-22.27468 -2.7736,-0.63942 -36.74215,-1.01998 -92.42525,-1.03544 -74.96295,-0.0189 -88.89257,0.19767 -93.78048,1.4708 -6.12671,1.59579 -13.69078,5.06993 -13.66246,6.27507 0.009,0.40132 3.17119,2.40155 7.02616,4.44499 5.79791,3.07329 7.44776,3.54849 9.54798,2.74999 1.56224,-0.59395 36.54347,-0.96529 90.93631,-0.96529 86.43212,0 88.5182,0.0453 93.83198,2.03334 7.64841,2.86164 13.9081,8.7337 17.8537,16.74807 l 3.28671,6.67616 v 89.02122 c 0,101.65965 0.56013,94.91762 -8.72995,105.08247 -5.57552,6.1005 -8.7812,8.08709 -16.27003,10.08264 -6.50582,1.73364 -173.08311,1.99348 -179.88546,0.28045 -4.00735,-1.00906 -4.68306,-0.84904 -10.94282,2.59177 -3.66945,2.01698 -6.67172,3.98627 -6.67172,4.3762 0,1.27786 9.37288,5.30215 15.49999,6.65499 4.76792,1.05275 24.17336,1.28659 94.50001,1.13866 l 88.49998,-0.18633 z M 362.63648,670.42228 c 9.76744,-3.27881 21.44839,-9.13531 23.62129,-11.84303 2.18119,-2.71805 2.19488,-4.56926 0.0944,-12.76615 l -1.69463,-6.61316 9.63378,-9.46303 9.63377,-9.46303 5.80246,1.81146 c 6.57264,2.05186 10.57347,2.30139 13.32133,0.83077 2.46726,-1.32041 10.24793,-15.74052 12.89848,-23.90505 3.91344,-12.05458 2.80247,-15.13323 -7.61388,-21.0991 l -4.76268,-2.72776 -0.0204,-13.62229 -0.0204,-13.62225 5.78114,-3.08194 c 7.41616,-3.95361 9.71887,-6.46889 9.71887,-10.61609 0,-3.94836 -2.99372,-13.05728 -7.62835,-23.21057 -2.37586,-5.20486 -3.07521,-7.7571 -2.36131,-8.61732 0.71491,-0.86139 0.49411,-1.6303 -0.74801,-2.60485 -1.56205,-1.22555 -1.62126,-1.20174 -0.52101,0.20938 1.76302,2.26107 0.28165,3.23876 -1.90664,1.25836 -1.25023,-1.13144 -1.51782,-2.02723 -0.84703,-2.83552 0.67697,-0.81569 0.53469,-1.18151 -0.45954,-1.18151 -0.79207,0 -1.20837,0.37493 -0.9251,0.83331 0.28328,0.45834 -0.88155,0.83335 -2.58848,0.83335 -1.70692,0 -5.94316,0.71331 -9.41386,1.58509 l -6.31036,1.58514 -9.42925,-9.53715 -9.42925,-9.53711 1.78019,-6.29798 c 2.32363,-8.22058 2.2731,-12.04902 -0.18841,-14.27667 -1.08703,-0.98374 -1.6925,-2.24799 -1.34549,-2.80948 0.35868,-0.58034 0.13875,-0.71667 -0.50958,-0.31596 -0.62727,0.3877 -3.0593,-0.41058 -5.4045,-1.77389 -5.80214,-3.37285 -18.86899,-8.45522 -23.74209,-9.23444 -5.35514,-0.85633 -7.9134,0.96363 -12.27822,8.73467 l -3.50394,6.23834 -13.54276,0.0699 -13.54275,0.0695 -3.5849,-6.63402 c -1.97169,-3.64872 -4.31454,-7.23957 -5.20633,-7.97968 -2.45937,-2.04109 -7.92126,-1.39003 -17.86302,2.12927 -4.95,1.75223 -9.75446,3.23698 -10.67658,3.29946 -0.92213,0.0624 -1.49873,0.40131 -1.28136,0.75303 0.2174,0.35187 -0.73684,1.15529 -2.12047,1.78571 -3.20535,1.46045 -3.70977,1.44189 -2.82029,-0.10393 0.41794,-0.72624 0.33793,-0.90082 -0.19097,-0.41666 -0.50068,0.45834 -0.91033,1.13333 -0.91033,1.49998 0,0.36662 -1.01251,1.67917 -2.25,2.91666 -2.68398,2.684 -2.84876,6.15062 -0.68862,14.48689 l 1.56137,6.02555 -2.74846,2.86878 c -3.51348,3.66727 -5.51451,3.77027 -2.3081,0.11868 1.62624,-1.85197 1.20946,-1.64024 -1.27626,0.64826 -2.03011,1.86905 -3.60084,3.69664 -3.49052,4.06129 0.11033,0.36473 -1.91026,3.01701 -4.49019,5.89402 l -4.69078,5.23102 -7.51267,-2.1829 c -6.70278,-1.94759 -7.86802,-2.0343 -10.80921,-0.80451 -1.81312,0.7581 -3.66751,1.26021 -4.12089,1.11583 -0.45339,-0.14438 -0.53426,0.20674 -0.17972,0.78047 0.35456,0.57366 -0.24257,2.49728 -1.32691,4.27476 -1.08434,1.77747 -2.88111,4.8709 -3.99282,6.87424 -2.35778,4.24887 -7.17623,19.02682 -7.17623,22.00914 0,2.50922 5.0313,7.40477 11.43629,11.12776 3.98943,2.31889 4.68299,3.14725 4.18632,4.99997 -0.32742,1.22136 -0.60145,7.3313 -0.60896,13.57765 -0.0117,9.84975 -0.21959,11.27796 -1.56559,10.76145 -0.85356,-0.32768 -1.32254,-0.2245 -1.04216,0.22942 0.28036,0.45365 -2.16258,2.32796 -5.42879,4.16511 -8.41151,4.73125 -9.0314,7.04531 -5.06149,18.89466 3.15578,9.41937 8.23778,20.3763 10.80036,23.28582 2.49028,2.82742 6.6381,3.08651 13.83331,0.86415 l 6.69793,-2.06877 9.46274,9.75565 9.46274,9.75564 -2.18494,7.65815 c -1.91287,6.70458 -2.01701,8.00682 -0.83635,10.45829 2.74472,5.699 25.44084,16.38354 34.80192,16.38354 4.27987,0 6.2965,-1.83848 10.61949,-9.68137 l 2.85596,-5.18143 13.58421,0.0559 13.5842,0.0559 3.74671,6.85104 c 2.06068,3.76807 4.51382,7.29834 5.4514,7.84497 2.76849,1.6142 6.88559,1.21134 14.81117,-1.44918 z m -9.09072,-21.56167 c -5.68825,-9.57982 -5.23341,-9.40695 -25.34637,-9.63277 -9.71816,-0.10923 -18.63147,-0.27251 -19.80735,-0.36284 -3.00789,-0.2313 -7.27785,3.21415 -11.30881,9.12495 -3.73904,5.48281 -3.98455,5.53414 -11.48207,2.40148 -3.66694,-1.53215 -3.78667,-1.73322 -3.14342,-5.27906 0.36778,-2.02741 0.93114,-6.23656 1.25189,-9.35365 l 0.58318,-5.66744 -10.95694,-10.83258 c -6.02631,-5.95789 -12.04794,-12.32148 -13.3814,-14.14129 -3.07924,-4.20238 -7.33212,-5.1823 -16.14206,-3.71939 l -6.7176,1.11549 -2.13053,-5.24931 c -1.17179,-2.88711 -1.97387,-5.6976 -1.7824,-6.24552 0.19147,-0.54792 2.82313,-2.71015 5.84813,-4.80495 7.67741,-5.31663 9.09502,-8.64839 7.78114,-18.28759 -0.73591,-5.3989 -0.68694,-10.276 0.1748,-17.40903 1.11911,-9.26351 1.07205,-10.07781 -0.72233,-12.49999 -1.8174,-2.45326 -8.48289,-8.01185 -11.90113,-9.92478 -1.38686,-0.77613 -1.25463,-1.58956 1.1176,-6.8756 l 2.69055,-5.99535 5.67968,1.33678 c 11.05886,2.60277 11.22807,2.53591 22.53094,-8.90208 5.58181,-5.64854 12.17375,-11.88559 14.64875,-13.86013 l 4.5,-3.59002 -0.28558,-6.88993 c -0.15707,-3.78943 -0.38206,-8.20615 -0.5,-9.8149 -0.19702,-2.68793 0.24318,-3.10352 5.43066,-5.12655 l 5.64507,-2.20154 3.94388,6.18622 c 5.37935,8.43779 8.26974,9.74509 18.6864,8.45185 5.42789,-0.67385 10.80367,-0.63428 17.17507,0.12662 11.47929,1.3706 13.54902,0.52191 19.57847,-8.0278 4.61886,-6.54954 4.68485,-6.56466 12.17424,-2.78486 3.17435,1.60202 3.73721,2.32376 3.21425,4.12168 -0.3487,1.19876 -0.9094,5.46274 -1.24603,9.47551 l -0.61205,7.29592 5.39782,4.70408 c 7.65282,6.66924 14.77697,14.09729 17.61145,18.36276 3.9284,5.91159 8.56229,6.86694 20.8653,4.3017 2.95061,-0.61523 3.16945,-0.42421 5.25,4.58215 1.19409,2.87327 2.17106,5.57465 2.17106,6.00302 0,0.42838 -2.86087,2.82033 -6.35748,5.31546 -7.80642,5.57057 -8.79568,7.79138 -7.85724,17.63898 0.39309,4.12497 0.35849,12 -0.0769,17.5 -0.49419,6.24284 -0.41906,10.82173 0.19993,12.18716 0.87165,1.92273 7.82483,7.96336 12.44635,10.81282 1.46015,0.90028 1.35623,1.58044 -1.0421,6.82068 -2.26079,4.93977 -2.97792,5.7289 -4.73828,5.21424 -1.14087,-0.33335 -5.31826,-0.87889 -9.28309,-1.2119 l -7.20878,-0.60545 -3.29122,3.4718 c -1.81017,1.90949 -5.54122,5.93303 -8.29122,8.94119 -2.75,3.00817 -7.56692,7.3584 -10.70427,9.6672 -4.54671,3.3459 -5.84048,4.92386 -6.37552,7.77589 -0.63154,3.36639 -0.16361,9.59629 1.10226,14.67568 0.49391,1.98179 -0.13568,2.51947 -5.27023,4.50066 -3.20712,1.23753 -6.03839,2.24107 -6.29169,2.23018 -0.2533,-0.0113 -1.80346,-2.28151 -3.4448,-5.04578 z m -9.29424,-51.85032 c 33.67565,-16.68654 29.67365,-64.98936 -6.31247,-76.1895 -23.61675,-7.35038 -47.86365,8.27913 -52.21029,33.65466 -2.64698,15.45294 5.75844,32.67095 20.08729,41.14752 7.16145,4.23655 11.90453,5.30389 22.21396,4.99892 8.44466,-0.24983 10.24668,-0.65102 16.22151,-3.6116 z m -27.76238,-15.45094 c -8.83051,-4.11201 -13.45913,-11.47313 -13.45913,-21.40467 0,-21.59705 25.67218,-31.7297 40.69932,-16.06379 4.2664,4.44779 6.30276,9.64418 6.29091,16.05321 -0.0321,17.37853 -17.81297,28.73457 -33.5311,21.41525 z m 201.94779,82.11685 c -1.95587,-3.43801 -4.20446,-4.83628 -9.55389,-5.94123 l -5.85302,-1.20891 v -4.73863 -4.73865 l 4.39665,-0.65934 c 6.79812,-1.01945 10.31694,-3.64887 11.59929,-8.66759 1.61107,-6.30512 2.96357,-9.67635 6.25388,-15.58817 3.30561,-5.93934 3.19377,-7.96041 -0.78974,-14.27067 -1.35303,-2.14337 -2.46009,-4.11549 -2.46009,-4.38244 0,-0.26683 1.37159,-1.88851 3.048,-3.60344 3.34258,-3.41941 2.79012,-3.50963 10.4245,1.70246 3.03103,2.06929 6.65821,1.62153 12.59993,-1.55543 2.98518,-1.59617 8.12757,-3.70658 11.42759,-4.68983 7.86727,-2.34406 9.292,-3.69025 11.21125,-10.5933 1.73631,-6.24517 3.25557,-7.42027 8.19194,-6.33607 2.41508,0.53046 2.95865,1.25594 3.50611,4.67951 1.08722,6.79914 3.04388,9.46741 8.241,11.23827 2.58829,0.88192 4.85079,1.60347 5.02783,1.60347 0.76804,0 0.096,-13.09365 -0.99534,-19.39635 -1.7102,-9.87564 -3.20515,-10.80775 -17.30521,-10.7898 -5.98269,0.008 -12.12318,0.49455 -13.64553,1.08208 -3.0827,1.18968 -4.73205,4.53498 -4.73205,9.59773 0,3.30857 -2.08475,6.50635 -4.24168,6.50635 -0.60435,0 -4.16705,1.41422 -7.91706,3.14275 l -6.81826,3.14272 -4.67562,-3.64271 c -2.57159,-2.00353 -5.70342,-3.64275 -6.95958,-3.64275 -4.94752,0 -21.38782,16.46196 -21.38782,21.41598 0,1.41864 1.62319,4.83874 3.6071,7.60017 2.90646,4.04561 3.37459,5.30098 2.41006,6.46315 -0.65836,0.79328 -2.47212,4.72248 -4.03057,8.7315 l -2.83355,7.2892 -5.82652,0.73217 c -7.35598,0.92435 -8.95098,2.74775 -9.86437,11.27671 -0.63202,5.90177 0.0703,16.90091 1.19682,18.74112 0.25247,0.4125 6.53405,0.74998 13.95908,0.74998 10.51257,0 13.34264,-0.27666 12.78887,-1.25001 z m 45.59308,0.65775 c 0,-0.32579 -0.87715,-1.70743 -1.94925,-3.07037 -2.96319,-3.76709 -3.62563,-10.54348 -1.55955,-15.95346 1.98021,-5.18506 7.50595,-9.78558 12.98914,-10.81421 7.68688,-1.44208 17.22523,3.97814 19.5854,11.12946 1.8788,5.69284 3.05609,1.8316 2.72209,-8.92793 l -0.288,-9.27121 -5.50001,-2.96293 c -4.66885,-2.5152 -6.63337,-2.96855 -12.99998,-3 -6.21805,-0.0302 -8.46433,0.43646 -13.14154,2.73339 -11.43375,5.61498 -18.53484,17.4333 -17.56267,29.22955 0.27213,3.29998 0.98053,7.23749 1.57459,8.74998 1.045,2.66068 1.32454,2.74999 8.60485,2.74999 4.13862,0 7.52474,-0.26646 7.52474,-0.59226 z m -297,-0.78531 c 0,-0.20749 -0.7875,-0.99515 -1.75,-1.74999 -1.58606,-1.24385 -1.62143,-1.20851 -0.37758,0.37757 1.30638,1.66575 2.12756,2.19549 2.12756,1.37242 z M 648.53,612.89114 c 25.12679,-7.96554 46.67229,-20.53133 55.72336,-32.4991 6.44632,-8.52362 6.77937,-10.54004 6.75443,-40.89395 -0.0227,-29.27332 -0.0813,-29.60077 -5.66204,-32.45485 -4.38009,-2.24001 -9.25432,-1.37843 -12.91574,2.28299 l -3.39999,3.39999 v 24.13213 c 0,18.11153 -0.34015,24.94602 -1.36312,27.39451 -3.3097,7.92124 -21.41401,18.65454 -44.38689,26.31503 l -11.24999,3.75145 v 11.13676 c 0,11.26832 0.27024,12.64388 2.34777,11.94425 0.63371,-0.21355 7.00222,-2.24258 14.15221,-4.50921 z m -156.1118,-24.9408 c 8.62232,-1.41199 9.43246,-2.41073 11.13914,-13.73238 0.4738,-3.14302 1.18345,-4.37375 2.80354,-4.86195 1.19301,-0.35943 5.84644,-2.21658 10.34094,-4.12683 l 8.17179,-3.47312 5.16801,4.08511 c 8.06091,6.37175 9.262,6.02075 21.59305,-6.3103 12.3498,-12.3498 12.71735,-13.615 6.39009,-21.99538 l -4.00525,-5.30491 3.42754,-7.41842 c 1.88516,-4.08015 3.73331,-8.63682 4.10707,-10.12596 0.53151,-2.1177 1.41989,-2.82221 4.07773,-3.23376 1.86897,-0.28951 4.95367,-0.76796 6.85485,-1.06341 2.0236,-0.31445 4.26199,-1.56098 5.39917,-3.00669 2.43662,-3.09766 3.61863,-13.75241 2.62424,-23.65447 -0.89839,-8.94592 -3.94643,-12.79317 -10.15317,-12.81532 -6.912,-0.0265 -7.63261,-0.59993 -10.70325,-8.54449 l -2.87637,-7.44186 h -7.87362 c -4.78356,0 -7.87367,0.40812 -7.87367,1.03987 0,0.57188 0.97584,2.93438 2.16855,5.24999 1.1927,2.3156 3.16429,7.36017 4.38122,11.21015 2.59359,8.20505 5.8173,11.08184 13.5707,12.11036 l 4.87952,0.64732 v 5.40254 c 0,3.47822 -0.44523,5.52086 -1.25,5.73471 -0.6875,0.18255 -3.5,0.87148 -6.25002,1.53071 -6.43321,1.5422 -8.81117,3.86203 -10.42885,10.17388 -0.72004,2.80951 -3.31385,9.14249 -5.76393,14.07334 -4.95076,9.96332 -4.93542,11.25048 0.22677,19.0557 1.35629,2.05073 2.46599,4.1416 2.46599,4.64643 0,1.68684 -7.0879,7.18829 -8.30985,6.44988 -0.65458,-0.39556 -3.19076,-1.98047 -5.63592,-3.52203 -5.7399,-3.61871 -7.91532,-3.5317 -15.39175,0.61561 -3.38937,1.88013 -9.37285,4.38312 -13.29661,5.56218 -8.88396,2.6696 -11.15796,4.99351 -12.66962,12.94776 l -1.17014,6.1573 -5.48934,-0.29291 -5.48935,-0.29292 -0.69048,-3.99998 c -1.60891,-9.32021 -3.56788,-11.69265 -11.57751,-14.02111 -3.14558,-0.91445 -7.44921,-2.54521 -9.56363,-3.62392 l -3.84439,-1.96124 -2.024,2.57311 c -1.1132,1.4152 -3.33427,3.25065 -4.93571,4.07879 -4.73082,2.44641 -3.75825,4.84203 3.3383,8.22289 3.4375,1.63763 7.92274,3.51469 9.96721,4.1712 3.92667,1.26096 3.68969,0.74385 5.34925,11.67296 0.25995,1.71201 1.39165,3.94439 2.51487,4.96089 3.30318,2.98934 15.86901,4.1599 26.30686,2.45053 z M 227.4873,569.99532 c 0.31646,-0.51201 0.19298,-1.16719 -0.27432,-1.45602 -0.46731,-0.28876 -0.84966,0.13001 -0.84966,0.93089 0,1.6862 0.31533,1.83353 1.12396,0.52513 z m 269.65312,-47.74809 c 6.31782,-2.78015 13.64353,-9.71691 16.84524,-15.95086 10.09157,-19.64912 -1.28995,-43.61197 -23.28147,-49.01726 -11.67806,-2.87032 -22.58183,0.33714 -31.85026,9.36941 -13.76256,13.41177 -13.6876,35.71306 0.16358,48.66924 11.21936,10.49439 24.52546,12.91299 38.12291,6.92947 z m -19.34638,-12.26544 c -5.68297,-1.81769 -9.63249,-5.15063 -12.19349,-10.28988 -3.19819,-6.41794 -3.2325,-10.80196 -0.1366,-17.45132 3.17886,-6.82749 8.33112,-10.31207 16.24942,-10.98977 7.31622,-0.62616 13.39144,2.30362 17.81666,8.59215 2.62582,3.73145 2.99951,5.11502 2.9961,11.09261 -0.003,5.97245 -0.37988,7.36172 -3,11.07099 -1.64787,2.33284 -4.59065,5.06498 -6.53949,6.0714 -4.26916,2.20467 -11.4418,3.10348 -15.1926,1.90382 z m 172.50588,-15.95505 c 31.93765,-10.81081 50.58153,-23.15153 57.69581,-38.18986 l 3.03273,-6.41068 7.6e-4,-27.61512 c 7.5e-4,-26.34206 -0.0937,-27.7355 -2.05285,-30.22594 -1.12948,-1.43592 -3.76475,-3.12344 -5.85612,-3.75005 -3.17665,-0.95176 -4.40791,-0.85194 -7.48093,0.60628 -2.02314,0.96003 -4.2254,2.69937 -4.89388,3.86521 -0.82689,1.44207 -1.37526,10.2969 -1.71542,27.70053 l -0.49999,25.58094 -2.79662,3.66346 c -5.81889,7.62259 -19.15371,14.92199 -40.7034,22.28092 l -12.49999,4.26856 -0.28271,11.68002 -0.28271,11.68007 3.55264,-0.66648 c 1.95394,-0.36662 8.60621,-2.3771 14.78275,-4.46786 z M 415.18524,480.17621 c 0.80585,-0.9625 2.27984,-4.44998 3.27552,-7.75 0.99569,-3.29998 2.99102,-8.24999 4.43407,-11.00001 1.44305,-2.74999 2.7763,-5.33749 2.96279,-5.74999 0.18648,-0.41249 -3.49312,-0.75001 -8.17689,-0.75001 -10.09984,0 -9.66299,-0.59735 -10.06212,13.75919 -0.28467,10.24036 0.71497,13.24081 4.4114,13.24081 0.92951,0 2.34937,-0.7875 3.15523,-1.74999 z m -127.14482,-48.25308 7.11448,-2.1188 -0.31245,-17.87603 -0.31246,-17.87604 -2.764,-2.88234 c -1.5202,-1.58532 -2.54445,-3.10193 -2.27612,-3.37024 0.26835,-0.26835 -2.02166,-0.44935 -5.08888,-0.40226 -5.10695,0.0782 -5.86298,0.39795 -8.97389,3.79253 l -3.39711,3.70689 v 21.47917 21.47913 l 4.44797,-1.90662 c 2.44638,-1.04863 7.64948,-2.86009 11.56244,-4.02539 z m 253.9896,-31.97031 c 53.92929,-4.04885 100.93958,-14.13879 130.81081,-28.07618 39.78917,-18.56496 49.75189,-46.22297 25.21297,-69.99527 -3.80769,-3.68876 -8.63324,-7.6147 -10.72343,-8.72431 -2.09019,-1.10961 -3.67669,-2.54893 -3.52558,-3.19849 0.15118,-0.64956 -0.16857,-0.90707 -0.71025,-0.57223 -0.54176,0.33483 -3.79124,-0.80778 -7.22101,-2.53914 -3.42981,-1.73135 -9.9758,-4.59375 -14.54665,-6.36087 -4.57089,-1.76713 -7.97008,-3.58822 -7.55376,-4.04687 0.41631,-0.45864 0.20371,-0.51592 -0.47252,-0.12726 -1.68427,0.96806 -9.35777,-1.43587 -8.58331,-2.68897 0.35981,-0.58195 0.11868,-0.69518 -0.57143,-0.26861 -0.65627,0.40559 -5.56327,-0.4149 -10.90454,-1.82331 -37.12248,-9.78871 -76.31754,-14.44707 -128.71132,-15.29744 -71.25569,-1.15651 -128.7501,5.90161 -173.81651,21.33805 -7.04914,2.41452 -13.34917,4.08484 -14.00005,3.71184 -0.65089,-0.373 -0.83594,-0.29605 -0.41124,0.17098 0.99825,1.09777 -14.15069,8.64754 -15.64256,7.79577 -0.6213,-0.35471 -0.79452,-0.27519 -0.38495,0.17673 1.02412,1.13 -6.00374,5.76591 -7.41689,4.89254 -0.6332,-0.39134 -0.86426,-0.26158 -0.52157,0.29287 0.70323,1.13784 -5.28829,5.94911 -6.80622,5.46548 -0.55,-0.17521 -0.65838,0.0231 -0.24087,0.44054 0.96468,0.96469 -3.24814,5.53237 -4.42929,4.80237 -0.48368,-0.29892 -0.77163,-0.17257 -0.6399,0.28082 0.13175,0.45338 -0.93693,2.65632 -2.37482,4.89542 -5.94347,9.25524 -7.31814,19.45189 -3.85217,28.57359 1.07964,2.84137 1.68511,5.61574 1.3455,6.16524 -0.37659,0.60934 -0.10076,0.67975 0.70696,0.18066 0.96971,-0.59928 1.14808,-0.35905 0.66596,0.89745 -0.36216,0.94375 -0.26461,1.47254 0.21676,1.17506 1.31866,-0.81498 3.383,2.16053 2.52761,3.6432 -0.41052,0.71164 -0.36635,0.94839 0.0982,0.52622 1.10527,-1.00452 7.58507,5.28223 6.78265,6.58057 -0.33857,0.54781 -0.12767,0.69453 0.46867,0.3258 0.59635,-0.3685 3.92838,1.30843 7.40451,3.72661 30.68886,21.34912 91.42449,35.22705 170.82025,39.03183 12.52209,0.60007 62.63058,-0.29178 77,-1.37076 z m -77.50001,-21.6918 c -77.35648,-3.70054 -142.28385,-19.2672 -163.41439,-39.17934 -8.08378,-7.61769 -8.02563,-12.66302 0.23826,-20.67186 12.7335,-12.34052 45.73242,-24.1413 87.86572,-31.42176 37.50737,-6.48111 68.16767,-8.55072 114.81041,-7.74985 33.62029,0.57726 52.27653,1.94669 78.49999,5.76216 64.31539,9.35776 110.96002,29.88189 105.5014,46.42173 -3.72273,11.27988 -30.47475,24.77309 -66.5014,33.54205 -42.58099,10.3643 -106.00853,15.73618 -156.99997,13.29687 z m -170.87942,7.04462 c 0.12612,-0.85946 -0.0499,-1.28341 -0.39123,-0.94212 -0.34133,0.34129 -0.72378,1.32378 -0.84993,2.18328 -0.12613,0.85947 0.0499,1.28342 0.39123,0.94209 0.34133,-0.34129 0.72378,-1.32378 0.84993,-2.18325 z m 417.83674,-72.31033 c 0.31635,-0.512 0.19314,-1.1672 -0.27439,-1.45601 -0.46734,-0.28879 -0.84968,0.13009 -0.84968,0.9309 0,1.68617 0.31522,1.83349 1.124,0.52511 z M 274.69668,305.4702 c 0,-0.80081 -0.38234,-1.21971 -0.84965,-0.9309 -0.4673,0.28879 -0.59075,0.94401 -0.27432,1.45601 0.80862,1.30838 1.12396,1.16106 1.12396,-0.52511 z M 207.03001,100.54864 c 0,-0.20765 -0.7875,-0.995151 -1.75,-1.749994 -1.58607,-1.243873 -1.62143,-1.208501 -0.37758,0.377537 1.30637,1.665757 2.12756,2.195487 2.12756,1.372437 z m 588.12756,-1.372442 c 1.24388,-1.586053 1.2085,-1.621425 -0.37757,-0.377537 -0.9625,0.754843 -1.75,1.542349 -1.75,1.749989 0,0.82305 0.82118,0.29333 2.12753,-1.372437 z"
       id="path847" />
  </g>
</svg>
