<?xml version="1.0" encoding="UTF-8" standalone="no"?>
<svg
   xmlns:dc="http://purl.org/dc/elements/1.1/"
   xmlns:cc="http://creativecommons.org/ns#"
   xmlns:rdf="http://www.w3.org/1999/02/22-rdf-syntax-ns#"
   xmlns:svg="http://www.w3.org/2000/svg"
   xmlns="http://www.w3.org/2000/svg"
   height="255.03"
   width="255.0419"
   version="1.1"
   id="svg880"
   viewBox="0 0 255.0419 255.03">
  <defs
     id="defs4" />
  <metadata
     id="metadata7">
    <rdf:RDF>
      <cc:Work
         rdf:about="">
        <dc:format>image/svg+xml</dc:format>
        <dc:type
           rdf:resource="http://purl.org/dc/dcmitype/StillImage" />
        <dc:title></dc:title>
      </cc:Work>
    </rdf:RDF>
  </metadata>
  <g
     id="layer1"
     transform="translate(-364.47905,-348.485)">
    <g
       id="layer101"
       style="fill:#734f96;stroke:none"
       transform="matrix(0.09999992,0,0,0.09999992,364.49325,347.6949)">
      <path
         id="path2"
         style="stroke-width:0.0999999"
         d="M 37.791016,0 C 26.398625,-7.9999936e-4 0,21.917393 0,37.175781 V 217.37695 c 0,11.33759 22.337175,37.65735 37.414062,37.65235 l 180.400388,-0.0606 c 13.42259,-0.005 37.22657,-19.28705 37.22657,-37.05664 V 37.535156 c 0,-12.10999 -21.13656,-37.52048413 -36.71485,-37.52148412 z M 35.013672,27.208984 H 221.01367 v 83.101566 l -21.90039,-0.32617 c -0.2,-0.2 -0.79922,-6.07462 -1.19922,-11.474614 -2.3,-25.39998 -8.00001,-40.014849 -19,-45.714844 -5.79999,-2.999998 -14.85656,-3.883778 -43.86523,-3.892578 l -27.03516,0.0078 v 62.298826 h 4.80078 c 8.1,-0.1 18.39883,-1.99961 21.79883,-4.0996 4.4,-2.7 8.10039,-10.500405 9.40039,-19.900398 0.98,-6.860294 1.73633,-11.992187 1.73633,-11.992187 l 21.26367,-0.0078 v 98.999995 h -22 v -3.89843 c 0,-6.4 -2.99961,-21.30079 -5.09961,-25.80078 -3.29999,-6.9 -8.90079,-9.30079 -24.80078,-10.80079 l -7.29883,-0.69921 0.40039,32.09961 c 0.3,30.49997 0.49844,32.20078 2.39844,34.80078 2.4,3.19999 5.0004,3.8 20.90039,5 l 10.67383,0.50781 -0.0742,21.79101 H 35.013672 v -21.79882 l 9.800781,-0.59961 c 19.899984,-1.3 19.69922,-1.2008 20.699219,-16.80078 0.899999,-14.79999 -0.234091,-130.676605 -0.900391,-133.000003 -1.097499,-3.826997 -5.21561,-6.028491 -17.5,-6.025391 l -12.099609,-0.07422 z"
         transform="matrix(10.000008,0,0,10.000008,-0.14200011,7.9010063)" />
    </g>
    <g
       id="layer102"
       style="fill:#ffffff;stroke:none"
       transform="matrix(0.09999992,0,0,0.09999992,364.49325,347.6949)" />
  </g>
</svg>
