<?xml version="1.0" encoding="UTF-8" standalone="no"?>
<svg
   xmlns:figma="http://www.figma.com/figma/ns"
   xmlns:dc="http://purl.org/dc/elements/1.1/"
   xmlns:cc="http://creativecommons.org/ns#"
   xmlns:rdf="http://www.w3.org/1999/02/22-rdf-syntax-ns#"
   xmlns:svg="http://www.w3.org/2000/svg"
   xmlns="http://www.w3.org/2000/svg"
   height="50.004925"
   width="42.680698"
   version="1.1"
   id="svg961"
   viewBox="0 0 42.680698 50.004925">
  <defs
     id="defs4" />
  <metadata
     id="metadata7">
    <rdf:RDF>
      <cc:Work
         rdf:about="">
        <dc:format>image/svg+xml</dc:format>
        <dc:type
           rdf:resource="http://purl.org/dc/dcmitype/StillImage" />
        <dc:title></dc:title>
      </cc:Work>
    </rdf:RDF>
  </metadata>
  <g
     id="layer1"
     transform="translate(-474.6596,-422.99749)">
    <g
       id="Canvas"
       transform="translate(-1165.8804,-2030.6924)"
       figma:type="canvas">
      <g
         id="g902"
         style="mix-blend-mode:normal"
         figma:type="group">
        <g
           id="g900"
           style="mix-blend-mode:normal"
           figma:type="group">
          <g
             id="Group"
             style="mix-blend-mode:normal"
             figma:type="group">
            <g
               id="g"
               style="mix-blend-mode:normal"
               figma:type="group">
              <g
                 id="path"
                 style="mix-blend-mode:normal"
                 figma:type="group">
                <g
                   id="path9 fill"
                   style="mix-blend-mode:normal"
                   figma:type="vector" />
              </g>
              <g
                 id="g844"
                 style="mix-blend-mode:normal"
                 figma:type="group">
                <g
                   id="path10 fill"
                   style="mix-blend-mode:normal"
                   figma:type="vector" />
              </g>
              <g
                 id="g849"
                 style="mix-blend-mode:normal"
                 figma:type="group">
                <g
                   id="path11 fill"
                   style="mix-blend-mode:normal"
                   figma:type="vector" />
              </g>
              <g
                 id="g854"
                 style="mix-blend-mode:normal"
                 figma:type="group">
                <g
                   id="path12 fill"
                   style="mix-blend-mode:normal"
                   figma:type="vector" />
              </g>
              <g
                 id="g859"
                 style="mix-blend-mode:normal"
                 figma:type="group">
                <g
                   id="path13 fill"
                   style="mix-blend-mode:normal"
                   figma:type="vector" />
              </g>
              <g
                 id="g864"
                 style="mix-blend-mode:normal"
                 figma:type="group">
                <g
                   id="path14 fill"
                   style="mix-blend-mode:normal"
                   figma:type="vector" />
              </g>
              <g
                 id="g869"
                 style="mix-blend-mode:normal"
                 figma:type="group">
                <g
                   id="path15 fill"
                   style="mix-blend-mode:normal"
                   figma:type="vector" />
              </g>
            </g>
          </g>
          <g
             id="g898"
             style="mix-blend-mode:normal"
             figma:type="group">
            <g
               id="g876"
               style="mix-blend-mode:normal"
               figma:type="group">
              <g
                 id="path16 fill"
                 style="mix-blend-mode:normal"
                 figma:type="vector">
                <path
                   id="use873"
                   d="m 1679.5106,2456.5257 c 0.037,0.5981 -0.1057,1.1935 -0.4088,1.7105 -0.303,0.5169 -0.7531,0.9319 -1.2929,1.1922 -0.5397,0.2602 -1.1447,0.3539 -1.7379,0.2691 -0.5932,-0.085 -1.1477,-0.3442 -1.593,-0.7453 -0.4452,-0.4011 -0.7609,-0.9256 -0.907,-1.5067 -0.146,-0.5812 -0.1158,-1.1927 0.087,-1.7566 0.2027,-0.5639 0.5686,-1.0547 1.0513,-1.4099 0.4826,-0.3551 1.06,-0.5586 1.6586,-0.5845 0.3926,-0.022 0.7855,0.035 1.1562,0.1654 0.3707,0.1308 0.7119,0.3336 1.0039,0.5967 0.2921,0.2631 0.5293,0.5813 0.6979,0.9364 0.1687,0.3551 0.2654,0.74 0.2848,1.1327 z"
                   style="mix-blend-mode:normal;fill:#767677" />
              </g>
            </g>
            <g
               id="g881"
               style="mix-blend-mode:normal"
               figma:type="group">
              <g
                 id="path17 fill"
                 style="mix-blend-mode:normal"
                 figma:type="vector">
                <path
                   id="use878"
                   d="m 1661.9062,2491.3924 c -8.0126,0 -15.0549,-2.8757 -18.6962,-7.1224 1.4128,3.8204 3.9622,7.1163 7.3048,9.444 3.3426,2.3278 7.3182,3.5756 11.3914,3.5756 4.0733,0 8.0488,-1.2478 11.3915,-3.5756 3.3426,-2.3277 5.8919,-5.6236 7.3048,-9.444 -3.6324,4.2467 -10.648,7.1224 -18.6963,7.1224 z"
                   style="mix-blend-mode:normal;fill:#f37726" />
              </g>
            </g>
            <g
               id="g886"
               style="mix-blend-mode:normal"
               figma:type="group">
              <g
                 id="path18 fill"
                 style="mix-blend-mode:normal"
                 figma:type="vector">
                <path
                   id="use883"
                   d="m 1661.9062,2463.7773 c 8.0127,0 15.055,2.8756 18.6963,7.1223 -1.4129,-3.8204 -3.9622,-7.1163 -7.3048,-9.444 -3.3427,-2.3277 -7.3182,-3.5756 -11.3915,-3.5756 -4.0732,0 -8.0488,1.2479 -11.3914,3.5756 -3.3426,2.3277 -5.892,5.6236 -7.3048,9.444 3.6413,-4.2556 10.648,-7.1223 18.6962,-7.1223 z"
                   style="mix-blend-mode:normal;fill:#f37726" />
              </g>
            </g>
            <g
               id="g891"
               style="mix-blend-mode:normal"
               figma:type="group">
              <g
                 id="path19 fill"
                 style="mix-blend-mode:normal"
                 figma:type="vector">
                <path
                   id="use888"
                   d="m 1650.8758,2499.6566 c 0.047,0.7533 -0.1314,1.5036 -0.5123,2.1553 -0.381,0.6516 -0.9473,1.1751 -1.6268,1.5037 -0.6796,0.3286 -1.4415,0.4475 -2.1889,0.3416 -0.7473,-0.106 -1.4462,-0.4321 -2.0076,-0.9367 -0.5614,-0.5046 -0.9598,-1.1649 -1.1446,-1.8967 -0.1847,-0.7319 -0.1474,-1.5022 0.1072,-2.2128 0.2546,-0.7106 0.715,-1.3293 1.3224,-1.7773 0.6075,-0.448 1.3347,-0.705 2.0887,-0.7383 0.494,-0.026 0.9884,0.045 1.4549,0.2094 0.4665,0.1647 0.8959,0.4197 1.2638,0.7504 0.368,0.3307 0.6671,0.7306 0.8804,1.177 0.2133,0.4464 0.3366,0.9304 0.3628,1.4244 z"
                   style="mix-blend-mode:normal;fill:#9e9e9e" />
              </g>
            </g>
            <g
               id="g896"
               style="mix-blend-mode:normal"
               figma:type="group">
              <g
                 id="path20 fill"
                 style="mix-blend-mode:normal"
                 figma:type="vector">
                <path
                   id="use893"
                   d="m 1644.1206,2462.8094 c -0.4317,0.012 -0.8574,-0.1041 -1.2234,-0.3334 -0.366,-0.2293 -0.656,-0.5618 -0.8336,-0.9555 -0.1775,-0.3937 -0.2347,-0.8312 -0.1643,-1.2573 0.07,-0.4261 0.2652,-0.822 0.5599,-1.1377 0.2948,-0.3157 0.6763,-0.5372 1.0966,-0.6366 0.4203,-0.099 0.8606,-0.072 1.2656,0.078 0.405,0.1501 0.7566,0.4166 1.0105,0.766 0.2539,0.3494 0.3988,0.7661 0.4165,1.1977 0.017,0.5835 -0.1971,1.1501 -0.5955,1.5768 -0.3984,0.4268 -0.949,0.6791 -1.5323,0.7023 z"
                   style="mix-blend-mode:normal;fill:#616262" />
              </g>
            </g>
          </g>
        </g>
      </g>
    </g>
  </g>
</svg>
