<?xml version="1.0" encoding="UTF-8" standalone="no"?>
<svg
   xmlns:dc="http://purl.org/dc/elements/1.1/"
   xmlns:cc="http://creativecommons.org/ns#"
   xmlns:rdf="http://www.w3.org/1999/02/22-rdf-syntax-ns#"
   xmlns:svg="http://www.w3.org/2000/svg"
   xmlns="http://www.w3.org/2000/svg"
   height="240.86984"
   width="245.50386"
   version="1.1"
   id="svg2223"
   viewBox="0 0 245.50386 240.86984">
  <defs
     id="defs4" />
  <metadata
     id="metadata7">
    <rdf:RDF>
      <cc:Work
         rdf:about="">
        <dc:format>image/svg+xml</dc:format>
        <dc:type
           rdf:resource="http://purl.org/dc/dcmitype/StillImage" />
        <dc:title></dc:title>
      </cc:Work>
    </rdf:RDF>
  </metadata>
  <g
     id="layer1"
     transform="translate(-21.248075,-321.56508)">
    <path
       style="fill:#000000"
       d="m 39.751924,561.61047 c -4.559347,-1.10997 -8.660609,-3.54047 -12.199319,-7.22961 -6.676536,-6.96035 -6.300681,-0.22937 -6.300681,-112.83531 0,-83.36852 0.247006,-102.65368 1.348462,-105.28213 2.186059,-5.21667 6.720361,-9.84095 12.110673,-12.35101 l 5.040865,-2.34733 h 104.000006 104 l 5.04087,2.34733 c 5.40282,2.51589 9.78605,6.99573 12.36067,12.63313 1.43129,3.13397 1.59846,14.1673 1.59846,105.50001 v 101.99999 l -3.09312,5.50001 c -3.45718,6.14734 -10.56034,11.26796 -17.13876,12.35521 -5.30619,0.87698 -203.114127,0.59928 -206.768126,-0.29029 z m 45.532733,-44.58186 c 5.57197,-2.88137 5.967267,-4.96695 5.967267,-31.48307 0,-25.78444 -0.375671,-28.04844 -5.216795,-31.4393 -1.22552,-0.85838 -4.052962,-1.5607 -6.283205,-1.5607 -4.69288,0 -7.890747,1.92116 -10.005711,6.01104 -2.290076,4.42852 -2.176694,48.74864 0.137186,53.62478 2.786861,5.87287 9.395661,7.95287 15.401258,4.84725 z m 46.244923,-2.46805 2.77765,-3.10846 -0.27765,-48.43123 -0.27765,-48.43123 -2.6323,-2.63162 c -1.79514,-1.79469 -4.06484,-2.79309 -7.13671,-3.13934 -4.09423,-0.46148 -4.85621,-0.18532 -8.36771,3.03254 l -3.86329,3.54025 v 47.99622 47.99621 l 2.5,2.69018 c 3.36031,3.61593 5.74152,4.52782 10.50001,4.02099 2.88907,-0.30772 4.77144,-1.28936 6.77765,-3.53451 z m 42.33746,0.87684 c 4.0425,-3.79773 4.56048,-7.78184 4.21126,-32.39186 -0.28352,-19.98021 -0.55798,-23.34083 -2.09039,-25.59587 -3.14075,-4.62182 -9.74106,-6.22583 -15.26392,-3.70944 -5.09807,2.32283 -5.47206,4.51815 -5.47206,32.12079 0,24.44785 0.0813,25.51822 2.13812,28.13298 1.17596,1.495 3.08846,3.12519 4.25,3.62264 3.33995,1.43043 9.56585,0.32077 12.22699,-2.17924 z m 41.21991,1.69345 c 5.6882,-2.94148 5.66498,-2.72181 5.66498,-53.58531 0,-50.56907 0.0522,-50.06116 -5.48266,-53.33069 -3.51159,-2.07434 -7.23414,-2.12568 -11.05007,-0.15239 -5.99339,3.0993 -5.96727,2.86308 -5.96727,53.9686 0,41.52974 0.17832,46.85699 1.64327,49.09279 3.29075,5.02232 9.87169,6.75812 15.19175,4.007 z m -131.051821,-88.146 c 2.602116,-1.8226 5.216795,-6.49027 5.216795,-9.31293 0,-5.50487 -9.580396,-11.42407 -14.808809,-9.14955 -3.830749,1.66649 -7.304355,6.44797 -7.89764,10.87125 -0.447506,3.33642 -0.125396,4.11564 2.675572,6.4725 3.742332,3.14896 11.12007,3.70611 14.814082,1.11873 z m 89.000011,0 c 2.76134,-1.93413 5.21679,-6.54023 5.21679,-9.78606 0,-3.0581 -5.62974,-8.19338 -10.04556,-9.16326 -3.73131,-0.81953 -7.1257,1.24157 -10.70444,6.49984 -3.18009,4.67253 -2.91978,8.26881 0.82673,11.42129 3.6346,3.05831 11.06626,3.57789 14.70648,1.02819 z M 84.035129,388.98484 c 2.664225,-1.8661 5.216795,-6.50936 5.216795,-9.48964 0,-2.70873 -5.816632,-8.61455 -9.360467,-9.50399 -5.628748,-1.41273 -12.199694,4.06907 -13.346179,11.13403 -0.60476,3.7267 1.340112,6.8924 5.206646,8.47494 3.342459,1.36804 9.922116,1.03842 12.283205,-0.61534 z m 45.272191,0.53106 c 4.36708,-2.33719 6.14608,-9.7463 3.54699,-14.77238 -2.60892,-5.04509 -4.90476,-6.33785 -10.66269,-6.00403 -4.68533,0.27163 -5.46611,0.64341 -6.94318,3.30605 -0.91531,1.65 -1.9512,4.15242 -2.30196,5.56093 -0.89678,3.60105 0.97728,9.59581 3.56681,11.40959 2.48964,1.74381 9.92674,2.03436 12.79403,0.49984 z m 43.72782,-0.53106 c 2.76134,-1.93413 5.21679,-6.54023 5.21679,-9.78605 0,-1.54592 -1.29473,-3.58285 -3.51834,-5.53521 -5.91224,-5.19102 -10.34034,-5.27633 -15.09063,-0.29075 -2.89344,3.03677 -4.70188,6.80083 -4.58088,9.53461 0.0989,2.23483 2.92771,5.56222 5.68985,6.69274 3.34246,1.36804 9.92212,1.03842 12.28321,-0.61534 z m 44.6279,-1.51602 c 4.64429,-5.51943 2.34883,-16.94149 -3.7103,-18.46224 -3.99191,-1.0019 -10.93831,-0.0877 -11.69354,1.53896 -0.38303,0.825 -1.21636,2.5064 -1.85184,3.73643 -2.04921,3.96642 -1.41488,9.80178 1.43346,13.18685 2.29374,2.72594 3.19568,3.07672 7.91111,3.07672 4.71543,0 5.61737,-0.35078 7.91111,-3.07672 z"
       id="path2176" />
  </g>
</svg>
