<?xml version="1.0" encoding="UTF-8" standalone="no"?>
<svg
   xmlns:dc="http://purl.org/dc/elements/1.1/"
   xmlns:cc="http://creativecommons.org/ns#"
   xmlns:rdf="http://www.w3.org/1999/02/22-rdf-syntax-ns#"
   xmlns:svg="http://www.w3.org/2000/svg"
   xmlns="http://www.w3.org/2000/svg"
   height="1129.8855"
   width="980.00616"
   version="1.1"
   id="svg887"
   viewBox="0 0 980.00616 1129.8855">
  <defs
     id="defs4" />
  <metadata
     id="metadata7">
    <rdf:RDF>
      <cc:Work
         rdf:about="">
        <dc:format>image/svg+xml</dc:format>
        <dc:type
           rdf:resource="http://purl.org/dc/dcmitype/StillImage" />
        <dc:title></dc:title>
      </cc:Work>
    </rdf:RDF>
  </metadata>
  <g
     id="layer1"
     transform="translate(0,99.241971)">
    <path
       style="fill:#000000;stroke-width:1.33333"
       d="M 248.59338,891.18582 C 115.81974,814.48411 5.56975,750.66432 3.59339,749.36408 L 0,747 V 465.04968 183.09934 l 5,-3.21833 c 10.31047,-6.63648 482.20466,-278.54318 484.41494,-279.12118 1.398,-0.36559 98.5445,54.9556 246.44943,140.34344 l 244.1418,140.94691 -0.3364,283.23242 -0.3365,283.23242 -241.3333,139.37668 c -132.73331,76.65723 -242.83331,140.1361 -244.66664,141.0642 l -3.33334,1.6876 z m 250.58085,80.37571 c -0.0875,-0.6417 -0.53229,-3.1656 -0.98843,-5.6088 l -0.82933,-4.4421 4.09073,3.4421 c 2.2499,1.8932 4.72624,3.4421 5.50299,3.4421 1.39907,0 0.81537,-7.4228 -1.15332,-14.6667 -0.80877,-2.9758 -0.2316,-2.7161 5.38192,2.4223 3.45831,3.1655 7.00784,5.4905 7.88785,5.1666 1.71099,-0.6297 1.71071,-0.625 0.4525,-7.3643 l -0.82934,-4.4421 4.09074,3.4421 c 6.92206,5.8245 7.90853,4.1856 5.01796,-8.337 -1.01088,-4.3794 -2.10758,-6.4295 -3.21263,-6.0054 -1.22628,0.4705 -1.35147,1.7817 -0.46517,4.872 1.87513,6.5382 1.54961,6.8194 -3.46627,2.9936 -5.55729,-4.2388 -7.00108,-2.6304 -4.79872,5.3459 l 1.38133,5.0028 -4.4149,-4.2791 c -3.95191,-3.8303 -4.7715,-4.1166 -7.81526,-2.7298 -3.04058,1.3854 -3.27373,1.9908 -2.20362,5.7221 1.85768,6.4773 1.52552,6.7576 -3.48216,2.9381 -5.55729,-4.2388 -7.00108,-2.6303 -4.79872,5.3459 l 1.38133,5.0028 -4.62112,-4.479 c -3.18737,-3.0893 -5.04964,-4.0504 -6.00226,-3.0978 -0.95262,0.9526 0.51674,3.1305 4.73592,7.0196 5.46476,5.0373 9.59845,6.5241 9.15798,3.2941 z m 44,-24 c -0.0875,-0.6417 -0.53229,-3.1656 -0.98843,-5.6088 l -0.82933,-4.4422 4.09073,3.4422 c 6.92207,5.8245 7.90854,4.1856 5.01796,-8.337 -1.01088,-4.3794 -2.10757,-6.4295 -3.21262,-6.0054 -1.22628,0.4705 -1.35147,1.7817 -0.46518,4.872 1.87514,6.5382 1.54962,6.8193 -3.46626,2.9935 -5.5573,-4.2387 -7.00108,-2.6303 -4.79872,5.346 l 1.38133,5.0028 -4.62112,-4.479 c -3.18737,-3.0893 -5.04964,-4.0505 -6.00227,-3.0978 -0.95261,0.9526 0.51675,3.1305 4.73592,7.0196 5.46476,5.0373 9.59846,6.5241 9.15799,3.2941 z m 17.22952,-10.4818 c 0.1446,-0.7233 -0.78709,-1.5173 -2.07043,-1.7644 -1.45946,-0.2811 -2.33333,0.3729 -2.33333,1.7461 0,2.3198 3.9404,2.3361 4.40376,0.018 z m 5.2778,-2.8109 c 0.43596,-0.436 -0.3618,-2.686 -1.7728,-5 -2.91391,-4.7788 -3.31167,-8.4064 -1.00603,-9.1749 0.89015,-0.2968 1.1214,-1.2481 0.5343,-2.198 -0.81602,-1.3203 -1.50096,-1.27 -3.23607,0.238 -1.21052,1.0521 -2.92371,2.1412 -3.80707,2.4202 -1.07312,0.339 -0.26226,2.8303 2.44339,7.5073 3.91147,6.7614 5.15888,7.8928 6.84428,6.2074 z m 12.23197,-7.1118 c 3.6479,-4.0309 1.63786,-8.0956 -4.00338,-8.0956 -3.17939,0 -4.57682,-0.6106 -4.57682,-2 0,-1.1 0.9,-2 2,-2 2.1478,0 2.71847,-2.0652 0.88396,-3.199 -1.8496,-1.1431 -6.88396,3.1676 -6.88396,5.8944 0,2.8557 3.51679,5.2193 7.24524,4.8695 3.51327,-0.3296 4.2843,3.1258 0.89524,4.0121 -1.54393,0.4037 -2.80714,1.2641 -2.80714,1.9119 0,2.1548 4.88596,1.2155 7.24686,-1.3933 z m 11.96976,-6.2353 c 2.57919,-0.9897 1.45982,-3.1905 -1.62865,-3.202 -2.62333,-0.01 -7.39031,-7.5444 -5.50885,-8.7072 1.96438,-1.214 1.46801,-3.6517 -0.58331,-2.8646 -1.01064,0.3878 -2.50064,0.042 -3.31112,-0.7684 -1.83712,-1.8372 -2.4656,-1.2167 -3.05432,3.0153 -0.26505,1.9053 0.16171,3.22 0.99617,3.0689 0.80295,-0.1454 2.79134,2.1046 4.41866,5 2.92062,5.1966 4.55593,6.0373 8.67142,4.458 z m 10.3548,-6.2682 c 0.96906,-0.9577 2.87948,-2.1648 4.2454,-2.6824 1.79795,-0.6814 2.10411,-1.3984 1.10911,-2.5973 -0.75592,-0.9108 -2.79983,-4.1655 -4.54203,-7.2327 -2.14172,-3.77059 -3.71344,-5.23939 -4.8529,-4.53515 -1.2972,0.80171 -1.02159,2.16644 1.19685,5.92645 3.00797,5.0981 2.74869,8.8624 -0.61044,8.8624 -1.08144,0 -3.35028,-2.3047 -5.04184,-5.1216 -3.81909,-6.3597 -7.46393,-6.1649 -4.22832,0.2261 4.34331,8.5788 8.76636,11.0657 12.72417,7.1542 z m 16,-9.3333 c 0.96906,-0.9577 2.86089,-2.1577 4.20409,-2.6666 l 2.4421,-0.9253 -2.6,-4.33343 c -1.43,-2.38338 -4.25921,-7.22314 -6.2872,-10.75501 -2.35261,-4.09724 -4.14999,-5.95884 -4.96568,-5.14314 -0.81569,0.81569 -0.70129,2.35685 0.31607,4.25781 1.27301,2.37864 1.2307,3.20992 -0.2098,4.12273 -0.99239,0.62884 -2.26919,1.15255 -2.83734,1.16377 -0.56814,0.0107 -1.61612,1.55414 -2.32882,3.42868 -2.93342,7.71549 6.76146,16.29109 12.26658,10.85049 z m -8.4627,-5.55261 c -1.14756,-2.5186 -1.1024,-3.77385 0.19184,-5.33333 0.93094,-1.12171 2.1763,-2.03948 2.76746,-2.03948 2.21395,0 5.26531,4.30503 5.26531,7.42857 0,4.61455 -6.11556,4.57315 -8.22461,-0.0557 z m 20.62339,-1.70614 c 1.0191,-1.83243 -7.7887,-14.86775 -9.381,-13.88364 -1.04278,0.64445 -0.259,3.11485 2.5097,7.91037 3.8308,6.63523 5.6322,8.2012 6.8713,5.97327 z m 11.3045,-6.40894 c 5.8281,-4.08216 2.3169,-15.27765 -4.7789,-15.23731 -4.356,0.0248 -6.0396,1.05748 -8.0986,4.96754 -1.2544,2.38228 -1.1655,3.7768 0.439,6.87953 2.9766,5.75611 7.3565,6.94987 12.4385,3.39024 z m -9.3016,-5.30698 c -1.272,-2.79159 -1.1461,-3.77771 0.7202,-5.64407 3.1054,-3.1054 6.7463,-0.69621 7.2959,4.82779 0.3716,3.7344 0.036,4.19886 -3.0285,4.19886 -2.3957,0 -3.9163,-1.03129 -4.9876,-3.38258 z m 19.3354,-2.59915 c 0.1446,-0.72329 -0.7871,-1.51729 -2.0704,-1.76444 -1.4595,-0.28106 -2.3333,0.3729 -2.3333,1.74618 0,2.31972 3.9404,2.33605 4.4037,0.0183 z m -31.0704,-2.60624 c 0,-1.05672 -0.5586,-2.2665 -1.24121,-2.68841 -1.58519,-0.97971 -3.17948,1.51703 -2.09214,3.27639 1.22608,1.98382 3.33335,1.61212 3.33335,-0.58798 z m 42.3923,-1.50325 c 1.6421,-1.15017 2.6079,-2.70245 2.1462,-3.44951 -0.5618,-0.90894 -1.319,-0.87877 -2.289,0.0912 -2.7178,2.71776 -7.5502,1.64674 -9.2328,-2.04632 l -1.5928,-3.49582 3.6553,-2.91467 c 2.0105,-1.60307 3.2612,-3.30883 2.7794,-3.7906 -1.0077,-1.00771 -6.0519,1.38721 -7.5049,3.56319 -1.8696,2.80008 -1.0062,8.81462 1.6463,11.46706 3.2085,3.20852 6.3821,3.38426 10.3923,0.57544 z m 11.9777,-7.98437 c 5.8281,-4.08216 2.3168,-15.27766 -4.7789,-15.23732 -4.356,0.0248 -6.0397,1.05748 -8.0986,4.96754 -1.2545,2.38228 -1.1655,3.7768 0.439,6.87954 2.9766,5.7561 7.3564,6.94986 12.4385,3.39024 z m -9.3017,-5.30699 c -1.272,-2.79159 -1.1461,-3.77771 0.7202,-5.64407 3.1054,-3.1054 6.7463,-0.69621 7.296,4.82779 0.3716,3.7344 0.036,4.19887 -3.0286,4.19887 -2.3957,0 -3.9163,-1.0313 -4.9876,-3.38259 z m 20.3474,-2.30903 c -0.065,-0.52706 -1.0947,-3.00752 -2.2891,-5.51214 -4.2367,-8.88452 1.0031,-11.39392 5.6754,-2.71799 1.3591,2.52363 3.2346,4.58841 4.1679,4.58841 2.3376,0 2.1313,-1.27088 -1.0548,-6.4969 -1.5078,-2.47331 -2.4244,-5.32331 -2.0368,-6.33334 1.2878,-3.35613 4.5987,-1.90108 7.7682,3.41403 2.0083,3.36773 3.7077,4.89401 4.7393,4.25644 1.1636,-0.71912 0.5111,-2.72413 -2.3594,-7.25045 -4.3831,-6.91152 -7.8989,-7.99308 -11.6691,-3.58978 -1.2558,1.46667 -3.3145,2.66667 -4.5749,2.66667 -1.2605,0 -2.6885,0.64204 -3.1735,1.42677 -0.485,0.78472 -1.9886,1.83622 -3.3415,2.33666 l -2.4596,0.90989 4.0755,7.05909 c 2.2415,3.8825 4.6548,6.866 5.3628,6.63 0.708,-0.236 1.2343,-0.8603 1.1696,-1.38736 z M 287.73962,748.62712 c 15.51388,-48.16904 55.3208,-87.37333 113.92329,-112.19863 48.52124,-20.55466 108.4299,-33.15938 199.67041,-42.01044 69.20435,-6.71339 89.70635,-10.0764 115.03235,-18.86922 28.53,-9.90517 48.4922,-23.01882 76.8321,-50.47294 35.1055,-34.00825 69.464,-73.84264 88.1756,-102.2287 15.8729,-24.07958 21.8484,-48.3734 13.8627,-56.35912 -3.0094,-3.00946 -10.7586,-2.68142 -13.5455,0.57342 -1.2558,1.46667 -3.2599,2.66667 -4.4535,2.66667 -3.6165,0 -13.0503,7.64663 -30.5704,24.77907 -20.936,20.4727 -36.6669,33.386 -47.5331,39.01913 l -2.8664,1.48598 11.1249,-44.02597 c 18.1247,-71.72668 25.837,-93.3687 36.8035,-103.27623 l 5.6155,-5.07335 -14.5722,0.80863 c -19.2337,1.06729 -27.8363,3.72601 -34.149,10.55409 -5.0039,5.41243 -12.8076,23.61596 -11.2231,26.17977 0.4491,0.72661 0.3553,1.52236 -0.2083,1.76833 -0.5636,0.24598 -3.2675,7.27126 -6.0087,15.61174 -8.9143,27.1239 -30.4028,65.09722 -42.6466,75.36281 -3.1184,2.61459 -4.9198,4.76555 -4.0032,4.77991 0.9167,0.0144 1.6667,0.47609 1.6667,1.02609 0,0.55 -2.3893,1 -5.3097,1 -7.5547,0 -8.5729,-3.15753 -7.6445,-23.70697 0.7585,-16.78936 3.6538,-30.16108 11.1781,-51.62636 5.2257,-14.90758 15.494,-35.70699 21.7035,-43.96223 3.0182,-4.01254 5.3141,-8.21254 5.102,-9.33333 -0.8032,-4.24515 -17.7494,-2.62745 -30.7463,2.93507 -13.9672,5.97782 -24.7096,24.49816 -35.0108,60.36049 -2.9879,10.40232 -19.2788,43.05789 -26.6672,53.4552 -6.1854,8.70454 -13.5553,15.81989 -18.9153,18.26206 -2.8032,1.27723 -3.6195,1.10679 -5.2847,-1.10336 -3.9558,-5.25021 -0.8958,-21.76681 14.9007,-80.42798 7.1656,-26.60973 2.6354,-40.36651 -14.3419,-43.55145 -2.7191,-0.51011 -5.9984,-0.47547 -7.2872,0.0769 -1.2889,0.55245 -4.5584,1.15968 -7.2656,1.34941 -2.7073,0.18972 -9.3073,2.48044 -14.6667,5.09048 -9.85761,4.80067 -25.56469,16.31541 -24.53291,17.98489 0.30849,0.49911 -0.73792,1.52214 -2.32532,2.27338 l -2.88618,1.3659 0.43521,-7.39294 c 0.7431,-12.62257 -5.13259,-15.51891 -27.9696,-13.78723 l -9.79895,0.74303 -0.11226,14.83082 c -0.14835,19.60575 -5.21772,42.21491 -12.52658,55.86787 -2.83525,5.29629 -5.3514,10.82961 -5.59145,12.29628 -0.24004,1.46667 -0.79643,2.96667 -1.23647,3.33333 -0.44001,0.36667 -4.31676,7.5641 -8.61497,15.9943 -6.19448,12.14937 -9.68232,17.19498 -16.82065,24.33333 -7.13667,7.13666 -9.84015,9.0057 -13.02629,9.0057 -3.22626,0 -4.19388,-0.6905 -4.89779,-3.4951 -2.87291,-11.44659 4.23391,-42.02683 18.57312,-79.91905 9.88356,-26.1179 13.1484,-33.06144 18.06665,-38.42335 l 3.51997,-3.83751 -15.22092,0.92311 c -10.9023,0.6612 -16.63486,1.64445 -20.20435,3.46548 -10.62756,5.42177 -18.3049,19.07159 -29.40968,52.28855 -8.11287,24.26742 -19.84543,50.57089 -27.74692,62.20635 -4.58554,6.7525 -5.36708,8.69571 -3.90826,9.71743 1.48527,1.04024 1.45252,1.16995 -0.17653,0.69935 -1.1,-0.31778 -4.51453,1.71621 -7.58785,4.51997 -3.07334,2.80376 -7.21668,5.50655 -9.20747,6.0062 -11.05857,2.77553 -9.43755,-17.20749 5.61536,-69.22272 9.01795,-31.16145 9.9616,-39.16666 5.61059,-47.59537 -4.36998,-8.46541 -9.81786,-11.04229 -21.48455,-10.16233 -9.64741,0.72765 -19.44533,4.49418 -29.70809,11.42044 -3.24756,2.19174 -5.90466,3.73617 -5.90466,3.43205 0,-0.30412 5.17362,-8.45823 11.49692,-18.12023 20.75372,-31.71171 38.59691,-67.38027 43.73632,-87.42905 3.20696,-12.51036 2.80704,-25.69598 -0.94865,-31.27704 -7.73604,-11.49595 -28.08327,-9.18603 -45.08268,5.11802 -7.13192,6.00112 -19.67022,23.99737 -27.1686,38.99518 -8.59325,17.18764 -19.78932,46.33164 -18.79467,48.92362 0.40195,1.04748 0.21902,1.5882 -0.40653,1.20158 -0.62555,-0.38661 -3.681,8.13223 -6.78988,18.93075 -3.10888,10.79852 -6.17142,21.13368 -6.80567,22.96701 -3.20421,9.26196 -10.5995,41.99961 -9.89957,43.8236 0.44217,1.15232 0.32776,1.61892 -0.25424,1.03692 -0.58202,-0.58201 -2.30538,3.93627 -3.8297,10.04064 -2.48119,9.93631 -2.55232,11.19377 -0.67894,12.00512 1.73076,0.7496 1.66224,0.92249 -0.39627,1 -1.81654,0.0684 -2.30034,0.81455 -1.79102,2.76223 0.3838,1.46768 0.15379,2.33226 -0.51116,1.9213 -0.66494,-0.41096 -1.25489,0.33822 -1.311,1.66483 -0.0561,1.32661 -0.41021,3.61203 -0.78691,5.07869 -0.37669,1.46667 -0.78078,4.16667 -0.89798,6 -0.1172,1.83333 -0.61832,3.64107 -1.11358,4.01719 -0.86159,0.6543 -8.92636,31.10868 -9.70532,36.64948 -0.20621,1.46666 -0.71962,3.56666 -1.14092,4.66666 -2.01916,5.27195 -6.38293,22.98147 -5.80518,23.55922 0.35986,0.35985 8.93345,0.15625 19.05242,-0.45247 l 18.39814,-1.10675 1.52409,-7.33333 c 14.37417,-69.16336 23.09755,-95.29749 38.13961,-114.2615 6.44819,-8.12946 19.77949,-18.35387 25.95048,-19.90268 9.94408,-2.49582 9.69905,4.3645 -1.48216,41.49752 -4.12339,13.69384 -8.07452,30.78382 -9.25189,40.01745 -0.2793,2.1904 -0.9369,6.83254 -1.46135,10.31588 -0.73854,4.90528 -0.54361,6.35633 0.86451,6.43534 5.74128,0.32216 10.48472,2.03595 10.48472,3.78811 0,0.72163 -2.17707,0.39751 -4.86027,-0.7236 -3.9984,-1.67064 -5.06892,-1.71769 -6.03695,-0.26531 -1.17942,1.76954 -0.76389,15.4271 0.62164,20.43212 0.40603,1.46667 0.78412,3.11667 0.84023,3.66667 0.0561,0.55 1.15201,1.00919 2.43535,1.02041 1.96978,0.0172 2.02536,0.21516 0.35675,1.27023 -3.1379,1.98413 4.28062,8.80027 11.57782,10.63773 10.12195,2.54874 19.89979,-1.23768 32.24153,-12.48536 6.43647,-5.8659 19.43598,-23.59704 25.93515,-35.37516 l 5.55548,-10.06781 0.85088,12.66667 c 0.99991,14.88481 3.70573,22.45646 10.00016,27.98302 6.10089,5.35667 15.48018,5.58428 25.44707,0.61758 7.9207,-3.94706 22.29492,-18.50572 30.87112,-31.26727 3.20338,-4.76667 5.47874,-7.46667 5.05638,-6 -2.03555,7.06848 -4.89229,21.19374 -4.89229,24.19007 v 3.35791 L 537,467.66676 c 10.08333,-0.51848 18.48428,-1.06772 18.66877,-1.22052 0.18449,-0.15282 2.17168,-9.8269 4.41599,-21.49796 8.08143,-42.02596 13.88564,-61.62856 25.23842,-85.23807 10.86435,-22.59374 20.79627,-33.00184 34.26529,-35.9081 5.466,-1.17942 9.7449,1.08446 9.7449,5.15589 0,1.72481 -3.2753,15.99361 -7.2784,31.70843 -9.12464,35.82061 -12.98534,57.02893 -13.17857,72.39506 -0.12919,10.28024 0.3226,12.95221 3.15302,18.64431 6.16695,12.402 19.27075,15.53146 33.22725,7.93537 10.1052,-5.49991 25.925,-22.92235 35.41,-38.99718 l 8,-13.55811 0.3698,6.98781 c 0.2035,3.8433 0.7569,7.8878 1.23,8.9878 0.4731,1.1 1.0222,3.36898 1.2202,5.04216 0.6356,5.37028 6.3763,14.07505 11.0958,16.8246 5.5601,3.23932 15.8144,3.32289 25.2003,0.20539 8.3226,-2.76434 19.2845,-12.59035 31.1932,-27.96105 5.1608,-6.6611 9.0244,-10.9111 8.5858,-9.44443 -0.4387,1.46667 -2.9029,10.4 -5.476,19.85185 -2.5731,9.45185 -4.9206,17.42745 -5.2167,17.72355 -0.2961,0.2961 -8.2853,1.97202 -17.7538,3.72429 -25.3579,4.6928 -29.3611,5.81641 -41.4441,11.63233 -11.9761,5.76454 -16.3796,10.07514 -22.3532,21.88163 -3.1451,6.21619 -3.5712,8.34717 -2.9238,14.61984 0.8756,8.48405 4.7712,15.9922 8.1457,15.69937 1.366,-0.11853 2.045,0.49043 1.6614,1.4901 -0.3961,1.03216 1.9946,2.92766 6.1385,4.86713 5.8433,2.73477 8.7487,3.1688 20.8904,3.12071 17.0156,-0.0675 28.0182,-3.4706 42.6336,-13.18691 15.8063,-10.50803 27.0102,-25.11024 35.5865,-46.38059 l 4.3377,-10.75796 7.7727,-4.16673 c 9.9728,-5.34616 16.6302,-9.9556 41.0131,-28.39626 10.9489,-8.28063 20.6571,-15.05568 21.5739,-15.05568 2.6865,0 2.8013,5.55006 0.243,11.75629 -2.8125,6.82321 -10.3226,16.73354 -24.4343,32.2437 -5.6713,6.23334 -14.6662,16.73334 -19.9888,23.33334 -18.4522,22.8811 -43.8225,45.42632 -65.4979,58.20441 -5.2931,3.12041 -9.2714,6.24365 -8.8407,6.94055 0.4306,0.69688 0.1778,0.89302 -0.5618,0.43588 -0.7397,-0.45715 -6.1891,1.21182 -12.1097,3.70885 -15.0179,6.3337 -33.9,11.62354 -48.2908,13.52864 -2.5667,0.33978 -10.3667,1.47205 -17.3333,2.51614 -32.2035,4.82636 -78.04093,9.00312 -123.33338,11.23832 -52.21364,2.57676 -68.0158,3.24831 -69.19736,2.94068 -2.24076,-0.58337 -77.34877,2.54872 -109.46929,4.56502 -67.74053,4.25224 -118.60411,11.6798 -168,24.53286 -23.85846,6.20811 -55.80267,16.79664 -56.43982,18.7081 -0.25004,0.7501 -0.98331,1.03708 -1.62951,0.6377 -1.9899,-1.22982 -57.27164,22.48976 -57.25915,24.56804 0.003,0.44448 6.82842,0.91339 15.16834,1.04203 66.68435,1.02863 137.64377,39.64202 178.43856,97.09944 3.64466,5.13333 7.21761,9.16846 7.93989,8.96696 0.72228,-0.2015 0.96668,0.19436 0.54314,0.87968 -0.89463,1.44752 0.41976,5.48669 1.78542,5.48669 0.51052,0 2.24727,-4.09547 3.85941,-9.10103 z m 10.03815,-76.89897 c 0,-1.1 0.5,-2 1.11112,-2 0.61111,0 1.11111,0.9 1.11111,2 0,1.1 -0.5,2 -1.11111,2 -0.61112,0 -1.11112,-0.9 -1.11112,-2 z m 143.55556,-56.66666 c 0,-0.73334 0.63541,-1.33334 1.41202,-1.33334 0.77662,0 1.0412,0.6 0.58798,1.33334 -0.45323,0.73333 -1.08864,1.33333 -1.41203,1.33333 -0.32339,0 -0.58797,-0.6 -0.58797,-1.33333 z m -30.91667,-12.91082 c 0.96249,-0.38516 2.11251,-0.3378 2.55556,0.1052 0.44305,0.44306 -0.34445,0.75819 -1.75,0.7003 -1.55327,-0.064 -1.8692,-0.37992 -0.80556,-0.80555 z m -33.33333,-1.33333 c 0.96249,-0.38516 2.1125,-0.3378 2.55556,0.1052 0.44305,0.44305 -0.34446,0.75819 -1.75,0.70029 -1.55327,-0.064 -1.8692,-0.37992 -0.80556,-0.80554 z m 143.80555,0.0219 c -1.55484,-1.55478 -0.95966,-3.11106 1.1898,-3.11106 1.23172,0 1.69106,-0.6272 1.12733,-1.53934 -0.55939,-0.90511 -0.3687,-1.17924 0.4628,-0.66534 0.77779,0.4807 1.10051,2.0734 0.71717,3.53935 -0.71455,2.73241 -1.92583,3.34772 -3.4971,1.77644 z m -194.47222,-1.35523 c 0.9625,-0.38516 2.1125,-0.3378 2.55556,0.1052 0.44306,0.44305 -0.34445,0.75818 -1.75,0.70029 -1.55326,-0.064 -1.8692,-0.37992 -0.80556,-0.80555 z m 145.58333,-3.08919 c 0,-0.73333 0.63542,-1.33333 1.41203,-1.33333 0.77661,0 1.0412,0.6 0.58797,1.33333 -0.45322,0.73333 -1.08864,1.33333 -1.41202,1.33333 -0.32339,0 -0.58798,-0.6 -0.58798,-1.33333 z m 144.02675,-10.03223 c 0.92763,-1.11772 1.96117,-1.75764 2.29673,-1.42204 0.9247,0.92467 -0.95402,3.45427 -2.56542,3.45427 -0.88414,0 -0.78297,-0.76504 0.26869,-2.03223 z m 157.97323,-48.63443 c 0.4532,-0.73334 1.4241,-1.33334 2.1574,-1.33334 0.7333,0 0.9625,0.6 0.5093,1.33334 -0.4532,0.73333 -1.4241,1.33333 -2.1574,1.33333 -0.7333,0 -0.9625,-0.6 -0.5093,-1.33333 z m -65.3333,-30.36338 c -8.4779,-1.95413 -14.7141,-10.93004 -13.5621,-19.52029 1.3822,-10.30776 9.6192,-14.50804 41.7772,-21.30343 l 14.8818,-3.14472 -1.7299,4.90303 c -8.9991,25.50629 -26.8905,42.40223 -41.367,39.06541 z m 60.4167,-29.2141 c 0.9624,-0.38516 2.1125,-0.3378 2.5555,0.1052 0.4431,0.44305 -0.3444,0.75818 -1.75,0.70029 -1.5533,-0.064 -1.8692,-0.37992 -0.8055,-0.80555 z m -470.41671,-0.94654 c 0,-0.28821 0.93116,-0.88133 2.06926,-1.31806 1.18656,-0.45532 1.72176,-0.2318 1.25464,0.52401 -0.78302,1.26695 -3.3239,1.87393 -3.3239,0.79405 z m 386.29891,-4.7382 c -0.3862,-1.4768 0.1154,-2.86726 1.1818,-3.27649 1.1827,-0.45385 1.8526,0.20976 1.8526,1.8352 0,3.52124 -2.2153,4.57348 -3.0344,1.44129 z m 71.7011,-6.73778 c 0.4532,-0.73334 1.724,-1.33334 2.824,-1.33334 1.1,0 1.6292,0.6 1.176,1.33334 -0.4532,0.73333 -1.7241,1.33333 -2.8241,1.33333 -1.1,0 -1.6291,-0.6 -1.1759,-1.33333 z M 426.66666,451.87081 c 0,-0.28821 0.93116,-0.88133 2.06925,-1.31807 1.18656,-0.45532 1.72176,-0.2318 1.25464,0.52402 -0.78301,1.26694 -3.32389,1.87393 -3.32389,0.79405 z m 188.23241,-9.22859 c -1.59449,-1.69726 -2.88084,-3.94726 -2.85853,-5 0.0295,-1.39004 0.41692,-1.26757 1.41529,0.44731 0.75609,1.29876 2.03055,1.95605 2.83213,1.46065 0.89272,-0.55173 1.07479,-0.28166 0.46992,0.69704 -0.5431,0.87876 -0.26233,2.47147 0.62392,3.53934 2.57857,3.10702 0.69607,2.23932 -2.48273,-1.14434 z m -60.78695,-1.76932 c -0.70222,-1.82997 -0.50712,-1.91245 1.19068,-0.50341 2.31366,1.92017 2.55446,2.692 0.83984,2.692 -0.65488,0 -1.56861,-0.98487 -2.03052,-2.18859 z m -6.47324,-2.61697 c -0.53473,-0.53472 -0.97222,-2.07221 -0.97222,-3.41667 0,-2.70678 4.55246,-3.33906 8,-1.1111 1.7092,1.10457 1.66073,1.29546 -0.33334,1.31292 -1.28333,0.0107 -2.33333,0.65582 -2.33333,1.43244 0,0.77661 -0.54876,1.07286 -1.21945,0.65836 -0.6707,-0.41452 -1.4332,-0.1124 -1.69444,0.6713 -0.26126,0.78374 -0.9125,0.98747 -1.44722,0.45275 z m 4.36111,-4.00376 c 0,-0.2882 -0.9,-0.52401 -2,-0.52401 -1.1,0 -2,0.58117 -2,1.29149 0,0.71031 0.9,0.94612 2,0.52401 1.1,-0.42212 2,-1.00328 2,-1.29149 z M 815.99997,431.77 c 0,-1.18944 0.7822,-1.65801 1.9924,-1.19361 1.0958,0.42049 1.6603,1.30166 1.2546,1.95814 -1.1635,1.88257 -3.247,1.39199 -3.247,-0.76453 z m -124.6666,-10.04184 c 0.4532,-0.73333 1.3886,-1.33333 2.0786,-1.33333 0.6901,0 1.2547,0.6 1.2547,1.33333 0,0.73333 -0.9354,1.33333 -2.0787,1.33333 -1.1433,0 -1.7079,-0.6 -1.2546,-1.33333 z m 54.1052,-2.11111 c 0.064,-1.55326 0.3799,-1.8692 0.8056,-0.80556 0.3851,0.9625 0.3378,2.11251 -0.1052,2.55556 -0.4431,0.44306 -0.7582,-0.34445 -0.7003,-1.75 z M 387.99999,405.72816 c -1.20172,-0.77661 -1.36617,-1.30065 -0.41202,-1.31292 0.87338,-0.0107 1.9588,0.57959 2.41202,1.31292 1.02307,1.65537 0.5615,1.65537 -2,0 z m 331.40978,-1.89099 c 1.4223,-1.04004 2.8696,-1.60741 3.2162,-1.26084 0.7338,0.73382 -2.7045,3.10143 -4.5475,3.13142 -0.6901,0.0107 -0.091,-0.83054 1.3313,-1.87058 z m -90.7431,-0.77568 c 0.4532,-0.73333 1.0886,-1.33333 1.412,-1.33333 0.3234,0 0.588,0.6 0.588,1.33333 0,0.73334 -0.6354,1.33334 -1.412,1.33334 -0.7766,0 -1.0412,-0.6 -0.588,-1.33334 z m -77.40515,-4.11617 c -0.49272,-0.79724 -0.1398,-2.14724 0.78422,-3 1.31106,-1.20996 1.50673,-1.05627 0.89089,0.69976 -0.55798,1.59103 0.0681,2.41672 2.13709,2.81843 l 2.92627,0.56817 -2.92131,0.18157 c -1.60672,0.0999 -3.32443,-0.4707 -3.81716,-1.26793 z m -78.44574,-2.30924 c -0.37122,-0.60064 1.09336,-0.83253 3.25463,-0.51533 2.16128,0.31721 3.92958,0.80864 3.92958,1.09208 0,1.01597 -6.52354,0.49226 -7.18421,-0.57675 z m 238.51759,-6.90792 c -0.4533,-0.73333 0.4467,-1.33333 2,-1.33333 1.5532,0 2.4532,0.6 2,1.33333 -0.4533,0.73333 -1.3533,1.33333 -2,1.33333 -0.6468,0 -1.5468,-0.6 -2,-1.33333 z M 318.41666,378.15068 c 0.9625,-0.38516 2.1125,-0.3378 2.55556,0.1052 0.44306,0.44305 -0.34445,0.75819 -1.75,0.70029 -1.55326,-0.064 -1.8692,-0.37992 -0.80556,-0.80554 z m 246.66666,-2.66667 c 0.9625,-0.38516 2.11251,-0.3378 2.55556,0.1052 0.44306,0.44306 -0.34445,0.75819 -1.75,0.7003 -1.55326,-0.064 -1.8692,-0.37992 -0.80556,-0.80555 z m -4,-17.33333 c 0.9625,-0.38516 2.11251,-0.3378 2.55556,0.1052 0.44306,0.44305 -0.34445,0.75819 -1.75,0.70029 -1.55326,-0.064 -1.8692,-0.37992 -0.80556,-0.80554 z M 330.41666,343.48401 c 0.9625,-0.38516 2.1125,-0.3378 2.55556,0.1052 0.44306,0.44306 -0.34445,0.75819 -1.75,0.7003 -1.55326,-0.064 -1.8692,-0.37992 -0.80556,-0.80555 z m 21.96495,-0.42252 c 0.32961,-1.1 2.21152,-7.4 4.18203,-14 1.97049,-6.6 5.99447,-19.33498 8.94218,-28.29997 2.94771,-8.96497 4.92207,-17.00768 4.38747,-17.87266 -0.53459,-0.865 -0.40424,-1.22183 0.28967,-0.79298 0.69391,0.42887 3.86281,-6.22842 7.04199,-14.79398 11.45336,-30.8583 24.03717,-51.87494 30.34444,-50.67931 3.73579,0.70816 3.69516,7.46661 -0.12932,21.50492 -4.34376,15.94449 -9.29665,27.87752 -20.55622,49.5262 -11.97683,23.02777 -36.69367,62.72096 -34.50227,55.40778 z m -4.96256,-5.72417 c 0.50071,-1.31496 1.24625,-2.05496 1.65677,-1.64444 0.41052,0.41052 8.6e-4,1.48639 -0.91037,2.39084 -1.31683,1.30701 -1.46997,1.15387 -0.7464,-0.7464 z m 455.35292,-20.38693 c 0.064,-1.55327 0.3799,-1.8692 0.8055,-0.80556 0.3852,0.96249 0.3378,2.11251 -0.1052,2.55556 -0.4431,0.44305 -0.7582,-0.34445 -0.7003,-1.75 z m -220.10531,-0.63425 c 0,-0.77662 0.6,-1.0412 1.33333,-0.58798 0.73333,0.45323 1.33333,1.08864 1.33333,1.41203 0,0.32339 -0.6,0.58797 -1.33333,0.58797 -0.73333,0 -1.33333,-0.63541 -1.33333,-1.41202 z M 412.1111,230.6842 c 0.30556,-0.2075 1.75557,-1.2575 3.22224,-2.33333 l 2.66665,-1.95604 -1.82991,2.33333 c -1.00647,1.28334 -2.45647,2.33334 -3.22223,2.33334 -0.76576,0 -1.1423,-0.16979 -0.83675,-0.3773 z M 208.45173,504.96294 c 30.25361,-4.98562 52.44793,-20.14078 64.09324,-43.7654 12.50889,-25.37654 11.56696,-49.57195 -2.85401,-73.31145 -9.03124,-14.86701 -24.79623,-34.84808 -39.84332,-50.4987 l -15.06965,-15.6741 -3.29799,-10.43998 -3.29799,-10.43997 2.71714,-12.53475 c 3.402,-15.69423 6.81874,-23.0452 12.84677,-27.63924 l 4.72088,-3.59785 h 14.09993 c 20.51259,0 23.3654,2.61078 27.25705,24.94476 2.13831,12.27161 3.65303,16.23314 7.68694,20.10398 3.36841,3.23226 5.27184,2.03492 17.60264,-11.07278 13.96929,-14.84944 15.70852,-21.35563 8.56896,-32.05516 -8.01576,-12.01266 -36.30864,-24.24316 -56.34899,-24.35867 -26.79301,-0.15443 -52.16362,15.5518 -65.20266,40.36513 -6.91135,13.15234 -8.9563,19.37335 -7.0174,21.34791 1.18628,1.20811 1.09825,1.48068 -0.37248,1.1534 -4.07876,-0.90767 -5.27088,18.32644 -1.99684,32.21786 4.1834,17.74982 12.83101,31.77854 39.81424,64.58935 7.1123,8.64836 14.51511,18.20827 16.45069,21.24424 1.93557,3.03599 4.7504,6.62204 6.25517,7.96901 1.50477,1.34696 1.98595,2.06156 1.06928,1.58798 -2.03433,-1.051 -2.1138,-0.0305 -0.26644,3.42132 0.77013,1.439 1.92867,2.28976 2.57453,1.8906 0.64588,-0.39918 1.56038,-0.10107 2.03222,0.66234 0.47185,0.76347 0.0633,1.22325 -0.90787,1.02176 -1.83071,-0.37984 -1.76397,4.62259 0.1068,8.0052 0.51859,0.93769 0.48651,5.97624 -0.0713,11.19676 -1.21851,11.40388 -5.38814,20.45737 -13.86608,30.10733 -16.05707,18.27687 -32.69517,19.4049 -49.99375,3.38948 -10.93284,-10.12188 -16.55194,-21.80969 -19.42225,-40.39848 -2.41332,-15.62921 -3.5462,-18.66666 -6.96217,-18.66666 -4.92722,0 -17.7885,16.805 -20.98181,27.41554 -3.22394,10.71235 -1.36068,27.63924 3.09146,28.08446 3.38675,0.33868 3.62631,0.56638 1.80743,1.71812 -1.53545,0.97226 -1.3393,2.01857 1.12638,6.00813 5.04267,8.15917 15.56272,14.77552 28.06619,17.65155 8.56328,1.9697 28.12135,1.26786 45.78507,-1.64302 z m 33.77049,-14.79034 c -1.61954,-1.61955 -0.92126,-3.03984 1.11111,-2.25995 1.1,0.42212 2,1.30328 2,1.95816 0,1.39787 -1.83685,1.57605 -3.11111,0.30179 z m -102.88889,-3.11111 c -2.17388,-0.93415 -2.25001,-1.16323 -0.41202,-1.23961 1.24005,-0.0516 2.62546,0.50628 3.07869,1.23961 0.94755,1.53317 0.90121,1.53317 -2.66667,0 z m 103.03395,-4.33245 c 0.42114,-1.61051 1.01109,-2.00668 1.59097,-1.06844 0.51704,0.8366 1.99512,1.07926 3.36707,0.5528 1.56184,-0.59934 2.13266,-0.43228 1.57977,0.4623 -0.47612,0.77039 -2.29252,1.67347 -4.03643,2.00684 -2.5992,0.49687 -3.05009,0.14474 -2.50138,-1.9535 z m 16.96605,-23.66755 c -0.45323,-0.73333 -0.22404,-1.33333 0.5093,-1.33333 0.73334,0 1.70415,0.6 2.15737,1.33333 0.45322,0.73333 0.22404,1.33333 -0.5093,1.33333 -0.73333,0 -1.70414,-0.6 -2.15737,-1.33333 z M 245,403.51179 c 0.91666,-0.36988 2.41666,-0.36988 3.33333,0 0.91667,0.36988 0.16667,0.67252 -1.66667,0.67252 -1.83333,0 -2.58333,-0.30264 -1.66666,-0.67252 z m -9.66667,-8.4503 c -0.45323,-0.73333 -0.18864,-1.33333 0.58797,-1.33333 0.77662,0 1.41203,0.6 1.41203,1.33333 0,0.73334 -0.26459,1.33334 -0.58797,1.33334 -0.32339,0 -0.9588,-0.6 -1.41203,-1.33334 z m 6,-16.50341 c 0,-0.27687 1.05,-1.32687 2.33333,-2.33333 L 246,374.39483 l -1.82992,2.33333 c -1.74183,2.221 -2.83675,2.92731 -2.83675,1.82992 z m 287.36445,-87.51581 c 7.86423,-4.86037 10.60792,-14.75464 6.49494,-23.42208 -4.33518,-9.13572 -17.72234,-8.11149 -26.23677,2.00733 -5.09359,6.05338 -5.11385,15.45716 -0.0463,21.4796 l 3.57633,4.25023 5.93007,-0.81281 c 3.26154,-0.44704 7.88831,-2.02307 10.28172,-3.50227 z"
       id="path1456" />
  </g>
</svg>
