<?xml version="1.0" encoding="UTF-8" standalone="no"?>
<svg
   xmlns:dc="http://purl.org/dc/elements/1.1/"
   xmlns:cc="http://creativecommons.org/ns#"
   xmlns:rdf="http://www.w3.org/1999/02/22-rdf-syntax-ns#"
   xmlns:svg="http://www.w3.org/2000/svg"
   xmlns="http://www.w3.org/2000/svg"
   height="120.76161"
   width="143.53421"
   version="1.1"
   id="svg1572"
   viewBox="0 0 143.53421 120.76161">
  <defs
     id="defs4" />
  <metadata
     id="metadata7">
    <rdf:RDF>
      <cc:Work
         rdf:about="">
        <dc:format>image/svg+xml</dc:format>
        <dc:type
           rdf:resource="http://purl.org/dc/dcmitype/StillImage" />
        <dc:title></dc:title>
      </cc:Work>
    </rdf:RDF>
  </metadata>
  <g
     id="layer1"
     transform="translate(-424.2329,-421.6192)">
    <path
       id="path4167"
       style="fill:#e25a1c;fill-opacity:1;fill-rule:evenodd;stroke:none;stroke-width:0.125"
       d="m 534.68781,523.45925 c -0.335,-0.71537 -0.48625,-1.07625 -0.66875,-1.42237 -4.8625,-9.24462 -9.71375,-18.49612 -14.62,-27.71787 -0.495,-0.92625 -0.43375,-1.4775 0.24375,-2.26875 7.73375,-9.035 15.4275,-18.10625 23.13,-27.16875 0.27,-0.3175 0.51375,-0.6575 0.6175,-1.2225 -2.2525,0.58875 -4.505,1.17 -6.755,1.76625 -9.345,2.47625 -18.6925,4.945 -28.02875,7.455 -0.87125,0.23375 -1.26625,-0.0213 -1.69875,-0.7425 -5.30625,-8.86375 -10.6425,-17.70875 -15.9725,-26.5575 -0.27625,-0.46 -0.5725,-0.90625 -1.15875,-1.2925 -0.42875,2.36125 -0.865,4.72125 -1.285,7.08375 -1.485,8.34 -2.965,16.6825 -4.445,25.02375 -0.16125,0.9 -0.38375,1.79625 -0.46,2.70375 -0.075,0.86125 -0.51625,1.17875 -1.295,1.42375 -11.01375,3.4575 -22.01625,6.94875 -33.01875,10.43625 -0.48375,0.1525 -0.955,0.35 -1.47375,0.82125 9.00125,3.5775 18.0025,7.15462 27.1425,10.78687 -0.3325,0.26413 -0.54875,0.46725 -0.7925,0.626 -5.6275,3.64113 -11.26375,7.26763 -16.8775,10.92775 -0.67125,0.4375 -1.205,0.4995 -1.96,0.15963 -6.72125,-3.02688 -13.46875,-5.9965 -20.2,-9.00288 -3.0225,-1.34962 -5.74125,-3.14262 -7.85875,-5.732 -4.78625,-5.85537 -3.84125,-12.51662 2.53625,-16.58537 2.0875,-1.33125 4.45625,-2.33 6.82,-3.10125 10.78625,-3.51375 21.61375,-6.9025 32.43625,-10.3025 0.90625,-0.28375 1.3275,-0.69 1.49625,-1.6725 1.44125,-8.34875 2.9375,-16.68875 4.44125,-25.025 0.805,-4.4575 1.2325,-9.03 3.4025,-13.115 0.8325,-1.57 1.83125,-3.10875 3.01875,-4.425 4.295,-4.7675 10.29125,-4.9525 14.83375,-0.41 1.5325,1.5325 2.85125,3.34125 3.99,5.19625 5.005,8.15875 9.9275,16.37 14.82375,24.595 0.57875,0.9725 1.10125,1.16875 2.1725,0.88125 12.0675,-3.235 24.1475,-6.42 36.2275,-9.61125 2.49125,-0.6575 5.01125,-0.9 7.56875,-0.42125 5.5675,1.0425 8.00125,5.28125 6.1175,10.65875 -0.8575,2.45125 -2.33625,4.52 -4,6.475 -8.42875,9.9125 -16.84375,19.83625 -25.30125,29.72375 -0.69125,0.8075 -0.70625,1.3925 -0.2275,2.295 5.045,9.50962 10.04625,19.04237 15.06625,28.56587 1.20125,2.28025 2.1175,4.645 2.145,7.26262 0.06,5.95363 -4.29375,10.82575 -10.21,11.69288 -3.31375,0.48687 -6.3925,-0.22113 -9.4975,-1.18013 -7.56625,-2.33887 -15.14625,-4.63875 -22.73,-6.9195 -0.7025,-0.21037 -0.97125,-0.48525 -1.095,-1.24262 -0.8725,-5.33688 -1.82375,-10.66213 -2.74375,-15.99175 -0.0263,-0.1465 0.0175,-0.30462 0.04,-0.63087 8.63375,2.38187 17.1925,4.74275 26.10375,7.20124" />
  </g>
</svg>
