<?xml version="1.0" encoding="UTF-8" standalone="no"?>
<svg
   xmlns:dc="http://purl.org/dc/elements/1.1/"
   xmlns:cc="http://creativecommons.org/ns#"
   xmlns:rdf="http://www.w3.org/1999/02/22-rdf-syntax-ns#"
   xmlns:svg="http://www.w3.org/2000/svg"
   xmlns="http://www.w3.org/2000/svg"
   height="495.96603"
   width="497.87842"
   version="1.1"
   id="svg1575"
   viewBox="0 0 497.87842 495.96603">
  <defs
     id="defs4" />
  <metadata
     id="metadata7">
    <rdf:RDF>
      <cc:Work
         rdf:about="">
        <dc:format>image/svg+xml</dc:format>
        <dc:type
           rdf:resource="http://purl.org/dc/dcmitype/StillImage" />
        <dc:title></dc:title>
      </cc:Work>
    </rdf:RDF>
  </metadata>
  <g
     id="layer1"
     transform="translate(174.93921,-188.01699)">
    <path
       style="fill:#000000"
       d="m 236.35382,681.93708 c -8.74741,-2.29337 -17.30083,-6.52552 -24.18291,-11.9655 -2.86353,-2.26349 -23.44992,-25.69726 -45.74753,-52.07504 l -40.5411,-47.9596 -6.1169,3.0878 C 80.097097,593.04922 31.917617,599.35162 -12.785433,590.3638 -100.18273,572.79206 -164.92747,500.77112 -173.9745,411.05987 c -6.58635,-65.31094 20.93971,-133.50229 70.71377,-175.18187 61.955907,-51.88035 146.895057,-62.46695 220.03449,-27.42452 87.98109,42.15333 132.68809,139.01669 108.12756,234.27196 -2.99804,11.62754 -9.70019,29.87596 -14.32357,38.99975 l -2.58138,5.09411 9.74239,8.33756 c 5.35831,4.58565 27.0141,22.91619 48.12397,40.73453 22.3268,18.84553 40.19408,34.7063 42.71467,37.91779 16.31009,20.78074 18.96887,49.7337 6.74105,73.40712 -5.32192,10.30338 -18.08344,22.82647 -29.05058,28.50781 -15.64356,8.10388 -33.99093,10.38764 -49.91405,6.21297 z m 25.77478,-28.38176 c 7.42671,-1.74805 13.3411,-5.31623 19.20768,-11.58808 5.52631,-5.90807 8.36783,-11.71818 9.69402,-19.82156 1.82288,-11.13824 -2.45739,-24.2884 -10.46307,-32.14538 -2.29994,-2.25722 -23.28519,-20.26923 -46.63389,-40.02671 l -42.45219,-35.92269 -3,3.65749 c -9.38642,11.44356 -20.8744,22.89474 -33.31414,33.20743 l -4.2219,3.5 37.57672,44.5 c 20.6672,24.475 39.23781,45.79043 41.26802,47.36761 9.48526,7.36869 20.96254,9.94954 32.33875,7.27189 z M 57.105817,563.8225 c 24.25909,-4.10349 47.774893,-13.59043 69.465733,-28.02445 15.10792,-10.05345 36.23838,-31.18391 46.29183,-46.29183 14.5612,-21.88197 23.92364,-45.20507 28.13595,-70.0904 1.93273,-11.41815 2.13686,-15.43361 1.67755,-33 C 202.00062,360.55218 198.82562,345.27345 189.712,324.02628 172.40017,283.66611 142.97847,252.81743 103.76916,233.9151 68.801537,217.05764 31.423097,212.3216 -6.3271232,219.96534 -74.463573,233.76174 -129.17294,288.47111 -142.96934,356.60755 c -7.71217,38.0882 -2.9034,75.29114 14.32285,110.80827 12.47378,25.71849 28.15326,44.90761 51.627631,63.18377 21.942676,17.08366 50.391266,29.24693 79.0000058,33.77668 13.8009402,2.18516 40.5193802,1.91675 55.1246702,-0.55377 z M 3.9811468,535.42624 C -29.021873,529.77376 -56.135583,515.31675 -79.211399,491.068 c -18.79637,-19.75176 -30.547541,-42.41897 -36.982251,-71.33621 -3.05105,-13.71127 -3.30114,-42.36787 -0.49116,-56.27969 6.2351,-30.86915 19.02964,-54.99049 40.620691,-76.58154 17.396996,-17.39701 35.675026,-28.65646 58.081546,-35.77885 17.05065977,-5.41991 25.5723598,-6.6527 45.96372,-6.64929 19.93399,0.003 29.83624,1.51365 46.81597,7.14053 30.759083,10.1932 59.274573,32.6436 77.382183,60.92342 7.78383,12.15651 15.70884,32.01944 19.31464,48.40945 2.5881,11.76413 3.11747,39.04433 1.01921,52.52342 -9.61199,61.74676 -57.89845,110.89672 -119.381373,121.51627 -13.27919,2.29364 -37.17126,2.52245 -49.1506302,0.47073 z M 53.301097,519.85636 c 26.82485,-5.45144 49.208373,-17.3967 68.216133,-36.40446 18.95131,-18.95132 30.8491,-41.59389 36.01304,-68.53608 2.63977,-13.77268 2.45742,-36.17281 -0.4045,-49.68841 -10.21212,-48.22744 -42.28298,-84.81129 -87.484493,-99.79525 -15.65602,-5.18986 -28.06205,-6.8751 -46.02899,-6.25258 -20.9709902,0.72659 -37.84489,4.82267 -54.84264,13.31284 -35.50566,17.73465 -59.665008,48.06677 -69.584117,87.36303 -2.41818,9.58001 -2.66744,12.32422 -2.68501,29.56037 -0.0222,21.74207 1.83375,32.87552 8.168227,49 18.622464,47.40371 59.453,78.30702 110.8124,83.87031 8.0031,0.8669 27.88262,-0.41028 37.81995,-2.42977 z M 8.9811468,409.91582 v -51 h 14.5000002 14.5 v 51 51 h -14.5 -14.5000002 z m 54.0000002,-18.5 v -69.5 h 14.5 14.5 v 69.5 69.5 h -14.5 -14.5 z m -108,35 v -32.5 h 14.5 14.5 v 32.5 32.5 h -14.5 -14.5 z"
       id="path1528" />
  </g>
</svg>
